<svg width="150" height="149" viewBox="0 0 150 149" fill="none" xmlns="http://www.w3.org/2000/svg">
<path fill-rule="evenodd" clip-rule="evenodd" d="M130.875 74.5C130.875 105.359 105.859 130.375 75 130.375C44.1411 130.375 19.125 105.359 19.125 74.5C19.125 43.6411 44.1411 18.625 75 18.625C105.859 18.625 130.875 43.6411 130.875 74.5ZM75 108.542C73.3431 108.542 72 107.199 72 105.542V77.5H43.9583C42.3015 77.5 40.9583 76.1569 40.9583 74.5C40.9583 72.8431 42.3015 71.5 43.9583 71.5H72V43.4583C72 41.8015 73.3431 40.4583 75 40.4583C76.6569 40.4583 78 41.8015 78 43.4583V71.5H106.042C107.699 71.5 109.042 72.8431 109.042 74.5C109.042 76.1569 107.699 77.5 106.042 77.5H78V105.542C78 107.199 76.6569 108.542 75 108.542Z" fill="#7FD54D"/>
</svg>
