<svg width="25" height="24" viewBox="0 0 25 24" fill="none" xmlns="http://www.w3.org/2000/svg">
<path fill-rule="evenodd" clip-rule="evenodd" d="M21.3691 12C21.3691 16.9706 17.3397 21 12.3691 21C7.39858 21 3.36914 16.9706 3.36914 12C3.36914 7.02944 7.39858 3 12.3691 3C17.3397 3 21.3691 7.02944 21.3691 12ZM12.3691 18C11.8169 18 11.3691 17.5523 11.3691 17V13H7.36914C6.81686 13 6.36914 12.5523 6.36914 12C6.36914 11.4477 6.81686 11 7.36914 11H11.3691V7C11.3691 6.44772 11.8169 6 12.3691 6C12.9214 6 13.3691 6.44772 13.3691 7V11H17.3691C17.9214 11 18.3691 11.4477 18.3691 12C18.3691 12.5523 17.9214 13 17.3691 13H13.3691V17C13.3691 17.5523 12.9214 18 12.3691 18Z" fill="#F2B705"/>
</svg>
