<svg width="240" height="240" viewBox="0 0 240 240" fill="none" xmlns="http://www.w3.org/2000/svg">
<circle cx="120" cy="120" r="120" fill="#BFBFBF"/>
<path d="M146.252 104.397H123.351V82.6282C123.351 81.6659 122.949 80.7431 122.233 80.0627C121.517 79.3823 120.547 79 119.534 79C118.522 79 117.551 79.3823 116.835 80.0627C116.12 80.7431 115.718 81.6659 115.718 82.6282V104.397H92.8168C91.8045 104.397 90.8337 104.78 90.1179 105.46C89.4021 106.14 89 107.063 89 108.025C89 108.988 89.4021 109.911 90.1179 110.591C90.8337 111.271 91.8045 111.654 92.8168 111.654H115.718V133.423C115.718 134.385 116.12 135.308 116.835 135.988C117.551 136.669 118.522 137.051 119.534 137.051C120.547 137.051 121.517 136.669 122.233 135.988C122.949 135.308 123.351 134.385 123.351 133.423V111.654H146.252C147.264 111.654 148.235 111.271 148.951 110.591C149.667 109.911 150.069 108.988 150.069 108.025C150.069 107.063 149.667 106.14 148.951 105.46C148.235 104.78 147.264 104.397 146.252 104.397Z" fill="#808080"/>
<path d="M214.961 192.977H23.2051C34.9099 208.549 70.8387 239.694 120.915 239.694C170.991 239.694 204.477 208.549 214.961 192.977Z" fill="#D9D9D9"/>
<path fill-rule="evenodd" clip-rule="evenodd" d="M116.466 207.447L116.412 207.447C116.157 207.447 115.934 207.447 115.719 207.478C114.895 207.597 114.157 208.053 113.682 208.737C113.558 208.915 113.459 209.115 113.345 209.343L113.345 209.343L113.321 209.391L112.464 211.104C112.306 211.42 111.983 211.62 111.629 211.62C110.008 211.62 108.694 212.934 108.694 214.555V219.774V219.829V219.829C108.694 220.891 108.694 221.767 108.77 222.472C108.848 223.207 109.018 223.873 109.437 224.461C109.695 224.823 110.011 225.139 110.373 225.397C110.961 225.816 111.626 225.986 112.362 226.064C113.067 226.139 113.943 226.139 115.005 226.139H115.06H123.108H123.162C124.224 226.139 125.1 226.139 125.805 226.064C126.541 225.986 127.207 225.816 127.795 225.397C128.156 225.139 128.472 224.823 128.73 224.461C129.149 223.873 129.319 223.207 129.398 222.472C129.473 221.767 129.473 220.891 129.473 219.829V219.774V214.555C129.473 212.934 128.159 211.62 126.539 211.62C126.185 211.62 125.861 211.42 125.703 211.104L124.847 209.391L124.823 209.343C124.709 209.115 124.609 208.915 124.485 208.737C124.011 208.053 123.272 207.597 122.448 207.478C122.233 207.447 122.01 207.447 121.755 207.447L121.701 207.447H116.466ZM116.004 209.458C116.058 209.45 116.127 209.447 116.466 209.447H121.701C122.04 209.447 122.109 209.45 122.163 209.458C122.438 209.497 122.684 209.649 122.842 209.877C122.873 209.922 122.906 209.983 123.058 210.286L123.914 211.998C124.411 212.992 125.427 213.62 126.539 213.62C127.055 213.62 127.473 214.039 127.473 214.555V219.774C127.473 220.904 127.472 221.673 127.409 222.259C127.348 222.828 127.239 223.107 127.102 223.3C126.973 223.481 126.815 223.639 126.634 223.768C126.44 223.906 126.161 224.015 125.593 224.075C125.006 224.138 124.238 224.139 123.108 224.139H115.06C113.929 224.139 113.161 224.138 112.574 224.075C112.006 224.015 111.727 223.906 111.534 223.768C111.353 223.639 111.195 223.481 111.066 223.3C110.928 223.107 110.819 222.828 110.758 222.259C110.696 221.673 110.694 220.904 110.694 219.774V214.555C110.694 214.039 111.113 213.62 111.629 213.62C112.74 213.62 113.756 212.992 114.253 211.998L115.11 210.286C115.261 209.983 115.294 209.922 115.325 209.877C115.483 209.649 115.729 209.497 116.004 209.458ZM121.257 217.837C121.257 219.037 120.284 220.01 119.084 220.01C117.884 220.01 116.911 219.037 116.911 217.837C116.911 216.636 117.884 215.664 119.084 215.664C120.284 215.664 121.257 216.636 121.257 217.837ZM123.257 217.837C123.257 220.141 121.388 222.01 119.084 222.01C116.779 222.01 114.911 220.141 114.911 217.837C114.911 215.532 116.779 213.664 119.084 213.664C121.388 213.664 123.257 215.532 123.257 217.837Z" fill="#222222"/>
</svg>
