<svg width="41" height="41" viewBox="0 0 41 41" fill="none" xmlns="http://www.w3.org/2000/svg">
<path d="M41 11.4008C40.9862 11.3465 40.9862 11.2903 41 11.2359C40.9882 11.1884 40.9882 11.1392 41 11.0916V10.9061L40.8543 10.597C40.7952 10.5126 40.7215 10.4362 40.6358 10.3702L40.4173 10.2053H40.2959L30.7301 5.07298L21.6985 0.332241C21.4895 0.191524 21.2504 0.0865276 20.9944 0.0230629H20.8002C20.5832 -0.00768765 20.3617 -0.00768765 20.1447 0.0230629H19.9019C19.6199 0.0760194 19.3495 0.166452 19.1007 0.291018L0.964553 9.87554L0.746046 10.0198L0.527538 10.1847L0.284752 10.329L0.163359 10.4527L0.0176866 10.7619V10.9474V11.071C-0.00589552 11.2077 -0.00589552 11.3466 0.0176866 11.4833V29.4775C0.0168609 29.8277 0.121201 30.1724 0.320857 30.479C0.520512 30.7855 0.808896 31.0438 1.15878 31.2295L19.3677 40.7934L19.7319 40.917H19.9262C20.3369 41.0276 20.7779 41.0276 21.1886 40.917H21.3829L21.7471 40.7934L39.8103 31.3737C40.1602 31.1881 40.4486 30.9298 40.6483 30.6233C40.8479 30.3167 40.9523 29.972 40.9514 29.6217V11.6276C40.9514 11.6276 41 11.4833 41 11.4008ZM20.3874 4.49584L24.709 6.76315L11.1373 13.8949L6.79142 11.6276L20.3874 4.49584ZM17.9596 35.4137L4.60635 28.4881V15.3171L17.9596 22.3251V35.4137ZM20.3874 18.6974L15.7502 16.3271L29.322 9.17474L33.9835 11.6276L20.3874 18.6974ZM36.1686 28.4262L22.8153 35.4755V22.3251L36.1686 15.3171V28.4262Z" fill="white"/>
</svg>
