<svg width="24" height="25" viewBox="0 0 24 25" fill="none" xmlns="http://www.w3.org/2000/svg">
<path d="M1.5 0.5C0.671573 0.5 0 1.13207 0 1.91176C0 2.69146 0.671573 3.32353 1.5 3.32353H3.32884L3.78718 5.04905C3.79199 5.069 3.79725 5.08879 3.80294 5.10841L5.83879 12.7728L4.49993 14.0329C2.61004 15.8116 3.94853 18.8529 6.62125 18.8529H19.4999C20.3284 18.8529 20.9999 18.2209 20.9999 17.4412C20.9999 16.6615 20.3284 16.0294 19.4999 16.0294L6.62125 16.0294L8.12125 14.6176H18C18.5682 14.6176 19.0876 14.3155 19.3416 13.8372L23.8416 5.36665C24.0741 4.92902 24.0493 4.4093 23.776 3.99309C23.5027 3.57687 23.0199 3.32353 22.5 3.32353H6.42116L5.95521 1.56936C5.78828 0.94089 5.1883 0.5 4.5 0.5H1.5Z" fill="white"/>
<path d="M21 22.3824C21 23.5519 19.9926 24.5 18.75 24.5C17.5074 24.5 16.5 23.5519 16.5 22.3824C16.5 21.2128 17.5074 20.2647 18.75 20.2647C19.9926 20.2647 21 21.2128 21 22.3824Z" fill="white"/>
<path d="M6.75 24.5C7.99264 24.5 9 23.5519 9 22.3824C9 21.2128 7.99264 20.2647 6.75 20.2647C5.50736 20.2647 4.5 21.2128 4.5 22.3824C4.5 23.5519 5.50736 24.5 6.75 24.5Z" fill="white"/>
</svg>
