<svg width="46" height="48" viewBox="0 0 46 48" fill="none" xmlns="http://www.w3.org/2000/svg">
<path d="M29.7851 22.6097L18.9367 11.5451C18.7586 11.3615 18.5466 11.2159 18.313 11.1164C18.0794 11.017 17.8289 10.9658 17.5759 10.9658C17.3229 10.9658 17.0724 11.017 16.8388 11.1164C16.6052 11.2159 16.3932 11.3615 16.2151 11.5451C15.8581 11.912 15.6577 12.4084 15.6577 12.9257C15.6577 13.4431 15.8581 13.9394 16.2151 14.3063L25.7026 24.098L16.2151 33.7918C15.8581 34.1587 15.6577 34.655 15.6577 35.1724C15.6577 35.6897 15.8581 36.1861 16.2151 36.553C16.3926 36.738 16.6043 36.8853 16.8379 36.9861C17.0715 37.087 17.3223 37.1394 17.5759 37.1405C17.8295 37.1394 18.0803 37.087 18.3139 36.9861C18.5475 36.8853 18.7592 36.738 18.9367 36.553L29.7851 25.4884C29.9796 25.305 30.1349 25.0825 30.2411 24.8347C30.3473 24.587 30.4021 24.3195 30.4021 24.0491C30.4021 23.7786 30.3473 23.5111 30.2411 23.2634C30.1349 23.0156 29.9796 22.7931 29.7851 22.6097Z" fill="#1B1B1B"/>
</svg>
