<svg width="50" height="50" viewBox="0 0 50 50" fill="none" xmlns="http://www.w3.org/2000/svg">
<path d="M29.1667 22.917H27.0833V14.5837H31.25C31.8025 14.5837 32.3324 14.8032 32.7231 15.1939C33.1138 15.5846 33.3333 16.1145 33.3333 16.667C33.3333 17.2195 33.5528 17.7494 33.9435 18.1401C34.3342 18.5308 34.8641 18.7503 35.4167 18.7503C35.9692 18.7503 36.4991 18.5308 36.8898 18.1401C37.2805 17.7494 37.5 17.2195 37.5 16.667C37.5 15.0094 36.8415 13.4197 35.6694 12.2476C34.4973 11.0755 32.9076 10.417 31.25 10.417H27.0833V6.25033C27.0833 5.69779 26.8638 5.16789 26.4731 4.77719C26.0824 4.38649 25.5525 4.16699 25 4.16699C24.4475 4.16699 23.9176 4.38649 23.5269 4.77719C23.1362 5.16789 22.9167 5.69779 22.9167 6.25033V10.417H20.8333C18.6232 10.417 16.5036 11.295 14.9408 12.8578C13.378 14.4206 12.5 16.5402 12.5 18.7503C12.5 20.9605 13.378 23.0801 14.9408 24.6429C16.5036 26.2057 18.6232 27.0837 20.8333 27.0837H22.9167V35.417H18.75C18.1975 35.417 17.6676 35.1975 17.2769 34.8068C16.8862 34.4161 16.6667 33.8862 16.6667 33.3337C16.6667 32.7811 16.4472 32.2512 16.0565 31.8605C15.6658 31.4698 15.1359 31.2503 14.5833 31.2503C14.0308 31.2503 13.5009 31.4698 13.1102 31.8605C12.7195 32.2512 12.5 32.7811 12.5 33.3337C12.5 34.9913 13.1585 36.581 14.3306 37.7531C15.5027 38.9252 17.0924 39.5837 18.75 39.5837H22.9167V43.7503C22.9167 44.3029 23.1362 44.8328 23.5269 45.2235C23.9176 45.6142 24.4475 45.8337 25 45.8337C25.5525 45.8337 26.0824 45.6142 26.4731 45.2235C26.8638 44.8328 27.0833 44.3029 27.0833 43.7503V39.5837H29.1667C31.3768 39.5837 33.4964 38.7057 35.0592 37.1429C36.622 35.5801 37.5 33.4605 37.5 31.2503C37.5 29.0402 36.622 26.9206 35.0592 25.3578C33.4964 23.795 31.3768 22.917 29.1667 22.917ZM22.9167 22.917H20.8333C19.7283 22.917 18.6685 22.478 17.8871 21.6966C17.1057 20.9152 16.6667 19.8554 16.6667 18.7503C16.6667 17.6453 17.1057 16.5854 17.8871 15.804C18.6685 15.0226 19.7283 14.5837 20.8333 14.5837H22.9167V22.917ZM29.1667 35.417H27.0833V27.0837H29.1667C30.2717 27.0837 31.3315 27.5226 32.1129 28.304C32.8943 29.0854 33.3333 30.1453 33.3333 31.2503C33.3333 32.3554 32.8943 33.4152 32.1129 34.1966C31.3315 34.978 30.2717 35.417 29.1667 35.417Z" fill="#05C7F2"/>
</svg>
