<svg width="24" height="24" viewBox="0 0 24 24" fill="none" xmlns="http://www.w3.org/2000/svg">
<path d="M20.0586 6.09698L17.3993 3.43269C16.158 2.19099 13.9896 2.18722 12.7446 3.43269L3.98627 12.2075C3.36377 12.8293 3.02148 13.6584 3.02148 14.5383V17.2026C3.02148 19.0209 4.49782 20.5 6.31268 20.5H8.97196C9.85024 20.5 10.6777 20.1571 11.2984 19.5334L20.0567 10.7586C20.6792 10.1368 21.0215 9.3077 21.0215 8.42777C21.0215 7.54784 20.6792 6.72066 20.0586 6.09698ZM9.30484 17.5361C9.21645 17.6247 9.09608 17.6737 8.97196 17.6737H6.31268C6.05314 17.6737 5.84251 17.4626 5.84251 17.2026V14.5383C5.84251 14.414 5.8914 14.2934 5.9798 14.2048L11.1761 8.99869L14.5012 12.33L9.30484 17.5361ZM18.0632 8.76128L16.4947 10.3327L13.1696 7.00141L14.7381 5.42997C14.8585 5.31126 14.9977 5.29242 15.071 5.29242C15.1444 5.29242 15.2835 5.31126 15.4039 5.42997L18.0632 8.09426C18.1835 8.21297 18.2005 8.35617 18.2005 8.42777C18.2005 8.50126 18.1835 8.64069 18.0632 8.76128Z" fill="black"/>
</svg>
