<svg width="82" height="81" viewBox="0 0 82 81" fill="none" xmlns="http://www.w3.org/2000/svg">
<path fill-rule="evenodd" clip-rule="evenodd" d="M18 19.25L17.9342 19.25C17.0477 19.25 16.2839 19.2499 15.6722 19.3321C15.0167 19.4203 14.3883 19.619 13.8787 20.1287C13.369 20.6383 13.1703 21.2667 13.0821 21.9222C12.9999 22.5339 13 23.2977 13 24.1842L13 24.25V56.75L13 56.8158C13 57.7023 12.9999 58.4661 13.0821 59.0778C13.1703 59.7333 13.369 60.3617 13.8787 60.8713C14.3883 61.381 15.0167 61.5797 15.6722 61.6679C16.2838 61.7501 17.0476 61.7501 17.934 61.75H17.9341H18H64H64.0659H64.066C64.9524 61.7501 65.7162 61.7501 66.3278 61.6679C66.9833 61.5797 67.6117 61.381 68.1213 60.8713C68.631 60.3617 68.8297 59.7333 68.9179 59.0778C69.0001 58.4662 69.0001 57.7024 69 56.816V56.8159V56.75V24.25V24.1841V24.184C69.0001 23.2976 69.0001 22.5338 68.9179 21.9222C68.8297 21.2667 68.631 20.6383 68.1213 20.1287C67.6117 19.619 66.9833 19.4203 66.3278 19.3321C65.7161 19.2499 64.9523 19.25 64.0658 19.25L64 19.25H18ZM15.2929 21.5429C15.369 21.4668 15.505 21.3726 15.9387 21.3143C16.4012 21.2521 17.0289 21.25 18 21.25H64C64.9711 21.25 65.5988 21.2521 66.0613 21.3143C66.495 21.3726 66.631 21.4668 66.7071 21.5429C66.7832 21.619 66.8774 21.755 66.9357 22.1887C66.9979 22.6512 67 23.2789 67 24.25V29.757L41.4472 42.5334C41.1657 42.6741 40.8343 42.6741 40.5528 42.5334L15 29.757V24.25C15 23.2789 15.0021 22.6512 15.0643 22.1887C15.1226 21.755 15.2168 21.619 15.2929 21.5429ZM15 31.993V56.75C15 57.7211 15.0021 58.3488 15.0643 58.8113C15.1226 59.245 15.2168 59.381 15.2929 59.4571C15.369 59.5332 15.505 59.6274 15.9387 59.6857C16.4012 59.7479 17.0289 59.75 18 59.75H64C64.9711 59.75 65.5988 59.7479 66.0613 59.6857C66.495 59.6274 66.631 59.5332 66.7071 59.4571C66.7832 59.381 66.8774 59.245 66.9357 58.8113C66.9979 58.3488 67 57.7211 67 56.75V31.993L42.3416 44.3222C41.4971 44.7445 40.5029 44.7445 39.6584 44.3222L15 31.993Z" fill="#F2B705"/>
</svg>
