<svg width="21" height="22" viewBox="0 0 21 22" fill="none" xmlns="http://www.w3.org/2000/svg">
<path d="M4.48528 2.95794L4.29496 2.20212H3.51555H2.04232C1.92048 2.20212 1.83398 2.10595 1.83398 2.00242C1.83398 1.89889 1.92048 1.80273 2.04232 1.80273H4.45898C4.55967 1.80273 4.64001 1.87025 4.66151 1.95564L5.03686 3.44629L5.22718 4.20212H6.00659H18.959C19.0345 4.20212 19.1014 4.24099 19.1379 4.29955C19.1739 4.35737 19.1769 4.42834 19.1466 4.48854L15.5216 11.6867C15.4881 11.7533 15.4167 11.7996 15.334 11.7996H7.3761H6.96399L6.67154 12.09L5.4632 13.2897L4.74983 13.998C4.74805 13.651 4.87644 13.2973 5.16349 13.0123L6.24202 11.9415L6.64629 11.5402L6.50718 10.9877L4.8672 4.47469L4.86451 4.46404L4.8616 4.45344L4.85962 4.44561L4.85718 4.4349L4.8545 4.42425L4.48528 2.95794ZM5.17048 14.9993H6.16777L16.5423 14.9993C16.6641 14.9993 16.7506 15.0955 16.7506 15.199C16.7506 15.3025 16.6641 15.3987 16.5423 15.3987H6.16777C5.75685 15.3987 5.41532 15.2415 5.17048 14.9993ZM16.7507 19.3979C16.7507 19.8328 16.3937 20.1975 15.9382 20.1975C15.4826 20.1975 15.1257 19.8328 15.1257 19.3979C15.1257 18.9631 15.4826 18.5984 15.9382 18.5984C16.3937 18.5984 16.7507 18.9631 16.7507 19.3979ZM7.08398 19.3979C7.08398 19.8328 6.72699 20.1975 6.27148 20.1975C5.81597 20.1975 5.45898 19.8328 5.45898 19.3979C5.45898 18.9631 5.81597 18.5984 6.27148 18.5984C6.727 18.5984 7.08398 18.9631 7.08398 19.3979Z" stroke="#222222" stroke-width="2"/>
</svg>
