<svg width="19" height="18" viewBox="0 0 19 18" fill="none" xmlns="http://www.w3.org/2000/svg">
<path d="M17.0586 3.59698L14.3993 0.932692C13.158 -0.309012 10.9896 -0.312781 9.74461 0.932692L0.986273 9.70753C0.363768 10.3293 0.0214844 11.1584 0.0214844 12.0383V14.7026C0.0214844 16.5209 1.49782 18 3.31268 18H5.97196C6.85024 18 7.67774 17.6571 8.29836 17.0334L17.0567 8.25856C17.6792 7.63676 18.0215 6.8077 18.0215 5.92777C18.0215 5.04784 17.6792 4.22066 17.0586 3.59698ZM6.30484 15.0361C6.21645 15.1247 6.09608 15.1737 5.97196 15.1737H3.31268C3.05314 15.1737 2.84251 14.9626 2.84251 14.7026V12.0383C2.84251 11.914 2.8914 11.7934 2.9798 11.7048L8.17612 6.49869L11.5012 9.83L6.30484 15.0361ZM15.0632 6.26128L13.4947 7.83272L10.1696 4.50141L11.7381 2.92997C11.8585 2.81126 11.9977 2.79242 12.071 2.79242C12.1444 2.79242 12.2835 2.81126 12.4039 2.92997L15.0632 5.59426C15.1835 5.71297 15.2005 5.85617 15.2005 5.92777C15.2005 6.00126 15.1835 6.14069 15.0632 6.26128Z" fill="black"/>
</svg>
