<svg width="67" height="66" viewBox="0 0 67 66" fill="none" xmlns="http://www.w3.org/2000/svg">
<path d="M33.5 5.5C27.6652 5.5 22.0695 7.81785 17.9437 11.9437C13.8179 16.0695 11.5 21.6652 11.5 27.5C11.5 42.35 30.8875 59.125 31.7125 59.84C32.2106 60.2661 32.8445 60.5002 33.5 60.5002C34.1555 60.5002 34.7894 60.2661 35.2875 59.84C36.25 59.125 55.5 42.35 55.5 27.5C55.5 21.6652 53.1822 16.0695 49.0564 11.9437C44.9305 7.81785 39.3348 5.5 33.5 5.5ZM33.5 54.0375C27.6425 48.5375 17 36.685 17 27.5C17 23.1239 18.7384 18.9271 21.8327 15.8327C24.9271 12.7384 29.1239 11 33.5 11C37.8761 11 42.0729 12.7384 45.1673 15.8327C48.2616 18.9271 50 23.1239 50 27.5C50 36.685 39.3575 48.565 33.5 54.0375ZM33.5 16.5C31.3244 16.5 29.1977 17.1451 27.3887 18.3538C25.5798 19.5625 24.1699 21.2805 23.3373 23.2905C22.5048 25.3005 22.2869 27.5122 22.7114 29.646C23.1358 31.7798 24.1834 33.7398 25.7218 35.2782C27.2602 36.8166 29.2202 37.8642 31.354 38.2886C33.4878 38.7131 35.6995 38.4952 37.7095 37.6627C39.7195 36.8301 41.4375 35.4202 42.6462 33.6113C43.8549 31.8023 44.5 29.6756 44.5 27.5C44.5 24.5826 43.3411 21.7847 41.2782 19.7218C39.2153 17.6589 36.4174 16.5 33.5 16.5ZM33.5 33C32.4122 33 31.3488 32.6774 30.4444 32.0731C29.5399 31.4687 28.8349 30.6098 28.4187 29.6048C28.0024 28.5998 27.8935 27.4939 28.1057 26.427C28.3179 25.3601 28.8417 24.3801 29.6109 23.6109C30.3801 22.8417 31.3601 22.3179 32.427 22.1057C33.4939 21.8935 34.5998 22.0024 35.6048 22.4187C36.6098 22.8349 37.4687 23.5399 38.0731 24.4444C38.6774 25.3488 39 26.4122 39 27.5C39 28.9587 38.4205 30.3576 37.3891 31.3891C36.3576 32.4205 34.9587 33 33.5 33Z" fill="#F2B705"/>
</svg>
