<svg width="40" height="50" viewBox="0 0 40 50" fill="none" xmlns="http://www.w3.org/2000/svg">
<path fill-rule="evenodd" clip-rule="evenodd" d="M8.83203 21.1697C8.83203 18.1219 10.0087 15.1988 12.1031 13.0437C14.1975 10.8885 17.0382 9.67773 20.0002 9.67773C22.9622 9.67773 25.8028 10.8885 27.8973 13.0437C29.9917 15.1988 31.1684 18.1219 31.1684 21.1697C31.1684 24.2176 29.9917 27.1406 27.8973 29.2958C25.8028 31.451 22.9622 32.6617 20.0002 32.6617C17.0382 32.6617 14.1975 31.451 12.1031 29.2958C10.0087 27.1406 8.83203 24.2176 8.83203 21.1697ZM20.0002 13.3068C17.9736 13.3068 16.03 14.1352 14.5969 15.6098C13.1639 17.0844 12.3588 19.0844 12.3588 21.1697C12.3588 23.2551 13.1639 25.2551 14.5969 26.7297C16.03 28.2043 17.9736 29.0327 20.0002 29.0327C22.0268 29.0327 23.9704 28.2043 25.4035 26.7297C26.8365 25.2551 27.6416 23.2551 27.6416 21.1697C27.6416 19.0844 26.8365 17.0844 25.4035 15.6098C23.9704 14.1352 22.0268 13.3068 20.0002 13.3068Z" fill="white"/>
<path fill-rule="evenodd" clip-rule="evenodd" d="M0.0713006 18.4041C0.474238 13.3887 2.69479 8.71246 6.29232 5.30326C9.88985 1.89407 14.6014 0.0011027 19.4921 0H20.5079C25.3986 0.0011027 30.1102 1.89407 33.7077 5.30326C37.3052 8.71246 39.5258 13.3887 39.9287 18.4041C40.3769 23.9913 38.6994 29.5392 35.2498 33.8784L23.9806 48.0583C23.4983 48.6652 22.891 49.1542 22.2026 49.49C21.5142 49.8258 20.7618 50 20 50C19.2382 50 18.4858 49.8258 17.7974 49.49C17.109 49.1542 16.5017 48.6652 16.0194 48.0583L4.75017 33.8784C1.30058 29.5392 -0.376913 23.9913 0.0713006 18.4041ZM19.4921 3.62905C15.4872 3.63079 11.6291 5.18143 8.68326 7.97339C5.73742 10.7653 3.91899 14.5946 3.58868 18.7017C3.21551 23.3515 4.61146 27.9687 7.48226 31.58L18.7515 45.7624C18.903 45.9532 19.0938 46.1069 19.3102 46.2125C19.5265 46.3181 19.7629 46.3728 20.0024 46.3728C20.2418 46.3728 20.4782 46.3181 20.6946 46.2125C20.9109 46.1069 21.1017 45.9532 21.2532 45.7624L32.5224 31.58C35.3916 27.968 36.7858 23.3508 36.4113 18.7017C36.081 14.5942 34.2622 10.7646 31.3159 7.97257C28.3695 5.18056 24.5109 3.63019 20.5055 3.62905H19.4921Z" fill="white"/>
</svg>
