<svg width="50" height="50" viewBox="0 0 50 50" fill="none" xmlns="http://www.w3.org/2000/svg">
<path d="M29.1667 22.9165H27.0833V14.5832H31.25C31.8025 14.5832 32.3324 14.8027 32.7231 15.1934C33.1138 15.5841 33.3333 16.114 33.3333 16.6665C33.3333 17.219 33.5528 17.7489 33.9435 18.1396C34.3342 18.5303 34.8641 18.7498 35.4167 18.7498C35.9692 18.7498 36.4991 18.5303 36.8898 18.1396C37.2805 17.7489 37.5 17.219 37.5 16.6665C37.5 15.0089 36.8415 13.4192 35.6694 12.2471C34.4973 11.075 32.9076 10.4165 31.25 10.4165H27.0833V6.24984C27.0833 5.6973 26.8638 5.1674 26.4731 4.7767C26.0824 4.386 25.5525 4.1665 25 4.1665C24.4475 4.1665 23.9176 4.386 23.5269 4.7767C23.1362 5.1674 22.9167 5.6973 22.9167 6.24984V10.4165H20.8333C18.6232 10.4165 16.5036 11.2945 14.9408 12.8573C13.378 14.4201 12.5 16.5397 12.5 18.7498C12.5 20.96 13.378 23.0796 14.9408 24.6424C16.5036 26.2052 18.6232 27.0832 20.8333 27.0832H22.9167V35.4165H18.75C18.1975 35.4165 17.6676 35.197 17.2769 34.8063C16.8862 34.4156 16.6667 33.8857 16.6667 33.3332C16.6667 32.7806 16.4472 32.2507 16.0565 31.86C15.6658 31.4693 15.1359 31.2498 14.5833 31.2498C14.0308 31.2498 13.5009 31.4693 13.1102 31.86C12.7195 32.2507 12.5 32.7806 12.5 33.3332C12.5 34.9908 13.1585 36.5805 14.3306 37.7526C15.5027 38.9247 17.0924 39.5832 18.75 39.5832H22.9167V43.7498C22.9167 44.3024 23.1362 44.8323 23.5269 45.223C23.9176 45.6137 24.4475 45.8332 25 45.8332C25.5525 45.8332 26.0824 45.6137 26.4731 45.223C26.8638 44.8323 27.0833 44.3024 27.0833 43.7498V39.5832H29.1667C31.3768 39.5832 33.4964 38.7052 35.0592 37.1424C36.622 35.5796 37.5 33.46 37.5 31.2498C37.5 29.0397 36.622 26.9201 35.0592 25.3573C33.4964 23.7945 31.3768 22.9165 29.1667 22.9165ZM22.9167 22.9165H20.8333C19.7283 22.9165 18.6685 22.4775 17.8871 21.6961C17.1057 20.9147 16.6667 19.8549 16.6667 18.7498C16.6667 17.6448 17.1057 16.585 17.8871 15.8036C18.6685 15.0222 19.7283 14.5832 20.8333 14.5832H22.9167V22.9165ZM29.1667 35.4165H27.0833V27.0832H29.1667C30.2717 27.0832 31.3315 27.5222 32.1129 28.3036C32.8943 29.085 33.3333 30.1448 33.3333 31.2498C33.3333 32.3549 32.8943 33.4147 32.1129 34.1961C31.3315 34.9775 30.2717 35.4165 29.1667 35.4165Z" fill="white"/>
</svg>
