<svg width="20" height="20" viewBox="0 0 20 20" fill="none" xmlns="http://www.w3.org/2000/svg">
<path d="M9.16634 4.1665L9.16634 9.1665L4.16634 9.1665C3.94533 9.1665 3.73337 9.2543 3.57709 9.41058C3.42081 9.56686 3.33301 9.77882 3.33301 9.99984C3.33301 10.2209 3.42081 10.4328 3.57709 10.5891C3.73337 10.7454 3.94533 10.8332 4.16634 10.8332L9.16634 10.8332L9.16634 15.8332C9.16634 16.0542 9.25414 16.2661 9.41042 16.4224C9.5667 16.5787 9.77866 16.6665 9.99967 16.6665C10.2207 16.6665 10.4326 16.5787 10.5889 16.4224C10.7452 16.2661 10.833 16.0542 10.833 15.8332L10.833 10.8332L15.833 10.8332C16.054 10.8332 16.266 10.7454 16.4223 10.5891C16.5785 10.4328 16.6663 10.2209 16.6663 9.99984C16.6663 9.77882 16.5785 9.56686 16.4223 9.41058C16.266 9.2543 16.054 9.1665 15.833 9.1665L10.833 9.1665L10.833 4.1665C10.833 3.94549 10.7452 3.73353 10.5889 3.57725C10.4326 3.42097 10.2207 3.33317 9.99967 3.33317C9.77866 3.33317 9.5667 3.42097 9.41042 3.57725C9.25414 3.73353 9.16634 3.94549 9.16634 4.1665Z" fill="#1B1B1B"/>
<path d="M9.16634 4.1665L9.16634 9.1665L4.16634 9.1665C3.94533 9.1665 3.73337 9.2543 3.57709 9.41058C3.42081 9.56686 3.33301 9.77882 3.33301 9.99984C3.33301 10.2209 3.42081 10.4328 3.57709 10.5891C3.73337 10.7454 3.94533 10.8332 4.16634 10.8332L9.16634 10.8332L9.16634 15.8332C9.16634 16.0542 9.25414 16.2661 9.41042 16.4224C9.5667 16.5787 9.77866 16.6665 9.99967 16.6665C10.2207 16.6665 10.4326 16.5787 10.5889 16.4224C10.7452 16.2661 10.833 16.0542 10.833 15.8332L10.833 10.8332L15.833 10.8332C16.054 10.8332 16.266 10.7454 16.4223 10.5891C16.5785 10.4328 16.6663 10.2209 16.6663 9.99984C16.6663 9.77882 16.5785 9.56686 16.4223 9.41058C16.266 9.2543 16.054 9.1665 15.833 9.1665L10.833 9.1665L10.833 4.1665C10.833 3.94549 10.7452 3.73353 10.5889 3.57725C10.4326 3.42097 10.2207 3.33317 9.99967 3.33317C9.77866 3.33317 9.5667 3.42097 9.41042 3.57725C9.25414 3.73353 9.16634 3.94549 9.16634 4.1665Z" fill="#1B1B1B"/>
</svg>
