<svg width="50" height="50" viewBox="0 0 50 50" fill="none" xmlns="http://www.w3.org/2000/svg">
<path d="M43.7498 33.3337H14.5832C14.0306 33.3337 13.5007 33.1142 13.11 32.7235C12.7193 32.3328 12.4998 31.8029 12.4998 31.2503C12.4998 30.6978 12.7193 30.1679 13.11 29.7772C13.5007 29.3865 14.0306 29.167 14.5832 29.167H36.3332C37.7262 29.1671 39.0793 28.7018 40.1777 27.845C41.2761 26.9882 42.0567 25.789 42.3957 24.4378L45.8332 10.917C45.9112 10.6095 45.918 10.2883 45.853 9.97777C45.788 9.66727 45.653 9.37571 45.4582 9.12533C45.2556 8.86852 44.9953 8.66303 44.6985 8.52549C44.4017 8.38795 44.0767 8.32224 43.7498 8.33366H14.0832C13.6534 7.11793 12.858 6.06491 11.8062 5.31895C10.7544 4.57299 9.49764 4.17062 8.20817 4.16699H6.24984C5.6973 4.16699 5.1674 4.38649 4.7767 4.77719C4.386 5.16789 4.1665 5.69779 4.1665 6.25033C4.1665 6.80286 4.386 7.33276 4.7767 7.72346C5.1674 8.11417 5.6973 8.33366 6.24984 8.33366H8.20817C8.68408 8.31979 9.15037 8.46935 9.52943 8.75744C9.90849 9.04552 10.1774 9.45475 10.2915 9.91699L10.4165 10.917L14.0207 25.0003C12.3631 25.0749 10.803 25.8049 9.68363 27.0298C8.56427 28.2546 7.97733 29.874 8.05192 31.5316C8.12651 33.1892 8.85653 34.7493 10.0814 35.8686C11.3062 36.988 12.9256 37.5749 14.5832 37.5003H14.9582C14.6155 38.4443 14.5054 39.457 14.6372 40.4526C14.7689 41.4482 15.1387 42.3974 15.7151 43.2198C16.2915 44.0422 17.0576 44.7136 17.9485 45.1771C18.8394 45.6407 19.8289 45.8827 20.8332 45.8827C21.8375 45.8827 22.8269 45.6407 23.7179 45.1771C24.6088 44.7136 25.3749 44.0422 25.9513 43.2198C26.5277 42.3974 26.8974 41.4482 27.0291 40.4526C27.1609 39.457 27.0508 38.4443 26.7082 37.5003H31.6248C31.2822 38.4443 31.1721 39.457 31.3039 40.4526C31.4356 41.4482 31.8053 42.3974 32.3818 43.2198C32.9582 44.0422 33.7242 44.7136 34.6152 45.1771C35.5061 45.6407 36.4956 45.8827 37.4998 45.8827C38.5041 45.8827 39.4936 45.6407 40.3845 45.1771C41.2754 44.7136 42.0415 44.0422 42.6179 43.2198C43.1943 42.3974 43.5641 41.4482 43.6958 40.4526C43.8276 39.457 43.7175 38.4443 43.3748 37.5003H43.7498C44.3024 37.5003 44.8323 37.2808 45.223 36.8901C45.6137 36.4994 45.8332 35.9695 45.8332 35.417C45.8332 34.8645 45.6137 34.3346 45.223 33.9438C44.8323 33.5532 44.3024 33.3337 43.7498 33.3337ZM41.0832 12.5003L38.354 23.417C38.2399 23.8792 37.971 24.2885 37.5919 24.5765C37.2129 24.8646 36.7466 25.0142 36.2707 25.0003H18.2915L15.1665 12.5003H41.0832ZM20.8332 41.667C20.4211 41.667 20.0183 41.5448 19.6757 41.3159C19.3331 41.087 19.0661 40.7616 18.9084 40.3809C18.7507 40.0002 18.7095 39.5813 18.7899 39.1772C18.8703 38.7731 19.0687 38.4019 19.36 38.1105C19.6514 37.8192 20.0226 37.6207 20.4267 37.5404C20.8309 37.46 21.2497 37.5012 21.6304 37.6589C22.0111 37.8166 22.3365 38.0836 22.5654 38.4262C22.7943 38.7688 22.9165 39.1716 22.9165 39.5837C22.9165 40.1362 22.697 40.6661 22.3063 41.0568C21.9156 41.4475 21.3857 41.667 20.8332 41.667ZM37.4998 41.667C37.0878 41.667 36.685 41.5448 36.3424 41.3159C35.9998 41.087 35.7328 40.7616 35.5751 40.3809C35.4174 40.0002 35.3761 39.5813 35.4565 39.1772C35.5369 38.7731 35.7353 38.4019 36.0267 38.1105C36.3181 37.8192 36.6893 37.6207 37.0934 37.5404C37.4975 37.46 37.9164 37.5012 38.2971 37.6589C38.6778 37.8166 39.0031 38.0836 39.2321 38.4262C39.461 38.7688 39.5832 39.1716 39.5832 39.5837C39.5832 40.1362 39.3637 40.6661 38.973 41.0568C38.5823 41.4475 38.0524 41.667 37.4998 41.667Z" fill="#05C7F2"/>
</svg>
