<svg width="44" height="43" viewBox="0 0 44 43" fill="none" xmlns="http://www.w3.org/2000/svg">
<path d="M40.8125 18.8125H24.6875V2.6875C24.6875 1.97473 24.4044 1.29116 23.9003 0.787151C23.3963 0.283147 22.7128 0 22 0C21.2872 0 20.6037 0.283147 20.0997 0.787151C19.5956 1.29116 19.3125 1.97473 19.3125 2.6875V18.8125H3.1875C2.47473 18.8125 1.79116 19.0956 1.28715 19.5997C0.783147 20.1037 0.5 20.7872 0.5 21.5C0.5 22.2128 0.783147 22.8963 1.28715 23.4003C1.79116 23.9044 2.47473 24.1875 3.1875 24.1875H19.3125V40.3125C19.3125 41.0253 19.5956 41.7088 20.0997 42.2129C20.6037 42.7169 21.2872 43 22 43C22.7128 43 23.3963 42.7169 23.9003 42.2129C24.4044 41.7088 24.6875 41.0253 24.6875 40.3125V24.1875H40.8125C41.5253 24.1875 42.2088 23.9044 42.7129 23.4003C43.2169 22.8963 43.5 22.2128 43.5 21.5C43.5 20.7872 43.2169 20.1037 42.7129 19.5997C42.2088 19.0956 41.5253 18.8125 40.8125 18.8125Z" fill="#F2B705"/>
</svg>
