<svg width="51" height="45" viewBox="0 0 51 45" fill="none" xmlns="http://www.w3.org/2000/svg">
<path d="M2.125 23.4004V32.7605C2.125 33.257 2.34888 33.7332 2.7474 34.0843C3.14591 34.4353 3.68641 34.6326 4.25 34.6326H6.375C6.375 36.122 7.04665 37.5505 8.24219 38.6037C9.43774 39.6569 11.0592 40.2486 12.75 40.2486C14.4408 40.2486 16.0623 39.6569 17.2578 38.6037C18.4534 37.5505 19.125 36.122 19.125 34.6326H31.875C31.875 36.122 32.5466 37.5505 33.7422 38.6037C34.9377 39.6569 36.5592 40.2486 38.25 40.2486C39.9408 40.2486 41.5623 39.6569 42.7578 38.6037C43.9534 37.5505 44.625 36.122 44.625 34.6326H46.75C47.3136 34.6326 47.8541 34.4353 48.2526 34.0843C48.6511 33.7332 48.875 33.257 48.875 32.7605V10.2962C48.875 8.80677 48.2034 7.3783 47.0078 6.32509C45.8123 5.27187 44.1908 4.68018 42.5 4.68018H23.375C21.6842 4.68018 20.0627 5.27187 18.8672 6.32509C17.6716 7.3783 17 8.80677 17 10.2962V14.0403H12.75C11.7603 14.0403 10.7842 14.2433 9.89901 14.6332C9.01381 15.0231 8.24381 15.5892 7.65 16.2867L2.55 22.2772C2.48785 22.3586 2.43785 22.4467 2.40125 22.5393L2.27375 22.7452C2.17997 22.954 2.12958 23.1759 2.125 23.4004ZM36.125 34.6326C36.125 34.2623 36.2496 33.9004 36.4831 33.5925C36.7166 33.2847 37.0485 33.0447 37.4368 32.903C37.8251 32.7613 38.2524 32.7243 38.6646 32.7965C39.0768 32.8687 39.4554 33.047 39.7526 33.3088C40.0498 33.5706 40.2522 33.9042 40.3342 34.2673C40.4162 34.6305 40.3741 35.0069 40.2132 35.3489C40.0524 35.691 39.78 35.9834 39.4306 36.1891C39.0811 36.3948 38.6703 36.5046 38.25 36.5046C37.6864 36.5046 37.1459 36.3074 36.7474 35.9563C36.3489 35.6052 36.125 35.129 36.125 34.6326ZM21.25 10.2962C21.25 9.79976 21.4739 9.3236 21.8724 8.97253C22.2709 8.62145 22.8114 8.42422 23.375 8.42422H42.5C43.0636 8.42422 43.6041 8.62145 44.0026 8.97253C44.4011 9.3236 44.625 9.79976 44.625 10.2962V30.8885H42.9675C42.37 30.3094 41.6417 29.8467 40.8293 29.53C40.0169 29.2134 39.1384 29.0498 38.25 29.0498C37.3616 29.0498 36.4831 29.2134 35.6707 29.53C34.8583 29.8467 34.13 30.3094 33.5325 30.8885H21.25V10.2962ZM17 21.5284H8.5L11.05 18.5332C11.2479 18.3007 11.5046 18.1119 11.7997 17.982C12.0947 17.852 12.4201 17.7843 12.75 17.7843H17V21.5284ZM10.625 34.6326C10.625 34.2623 10.7496 33.9004 10.9831 33.5925C11.2166 33.2847 11.5485 33.0447 11.9368 32.903C12.3251 32.7613 12.7524 32.7243 13.1646 32.7965C13.5768 32.8687 13.9554 33.047 14.2526 33.3088C14.5498 33.5706 14.7522 33.9042 14.8342 34.2673C14.9162 34.6305 14.8741 35.0069 14.7132 35.3489C14.5524 35.691 14.28 35.9834 13.9306 36.1891C13.5811 36.3948 13.1703 36.5046 12.75 36.5046C12.1864 36.5046 11.6459 36.3074 11.2474 35.9563C10.8489 35.6052 10.625 35.129 10.625 34.6326ZM6.375 25.2724H17V30.4767C15.7459 29.4893 14.0997 28.9785 12.42 29.0557C10.7403 29.1328 9.16326 29.7916 8.0325 30.8885H6.375V25.2724Z" fill="#05C7F2"/>
</svg>
