<svg width="38" height="31" viewBox="0 0 38 31" fill="none" xmlns="http://www.w3.org/2000/svg">
<path d="M2.04102 16.1457V22.604C2.04102 22.9466 2.20344 23.2751 2.49256 23.5174C2.78168 23.7596 3.17381 23.8957 3.58268 23.8957H5.12435C5.12435 24.9234 5.61162 25.909 6.47898 26.6357C7.34634 27.3624 8.52272 27.7707 9.74935 27.7707C10.976 27.7707 12.1524 27.3624 13.0197 26.6357C13.8871 25.909 14.3743 24.9234 14.3743 23.8957H23.6243C23.6243 24.9234 24.1116 25.909 24.979 26.6357C25.8463 27.3624 27.0227 27.7707 28.2493 27.7707C29.476 27.7707 30.6524 27.3624 31.5197 26.6357C32.3871 25.909 32.8743 24.9234 32.8743 23.8957H34.416C34.8249 23.8957 35.217 23.7596 35.5061 23.5174C35.7953 23.2751 35.9577 22.9466 35.9577 22.604V7.104C35.9577 6.07629 35.4704 5.09067 34.6031 4.36397C33.7357 3.63726 32.5593 3.229 31.3327 3.229H17.4577C16.2311 3.229 15.0547 3.63726 14.1873 4.36397C13.32 5.09067 12.8327 6.07629 12.8327 7.104V9.68734H9.74935C9.03134 9.68734 8.32319 9.8274 7.68099 10.0964C7.03878 10.3655 6.48015 10.7561 6.04935 11.2373L2.34935 15.3707C2.30426 15.4268 2.26799 15.4876 2.24143 15.5515L2.14893 15.6936C2.08089 15.8376 2.04434 15.9908 2.04102 16.1457ZM26.7077 23.8957C26.7077 23.6402 26.7981 23.3905 26.9675 23.1781C27.1369 22.9656 27.3777 22.8001 27.6594 22.7023C27.9411 22.6046 28.2511 22.579 28.5501 22.6288C28.8492 22.6787 29.1239 22.8017 29.3395 22.9823C29.5551 23.163 29.7019 23.3931 29.7614 23.6437C29.8209 23.8942 29.7903 24.1539 29.6737 24.39C29.557 24.626 29.3594 24.8277 29.1059 24.9697C28.8523 25.1116 28.5543 25.1873 28.2493 25.1873C27.8405 25.1873 27.4483 25.0513 27.1592 24.809C26.8701 24.5668 26.7077 24.2382 26.7077 23.8957ZM15.916 7.104C15.916 6.76143 16.0784 6.43289 16.3676 6.19066C16.6567 5.94842 17.0488 5.81234 17.4577 5.81234H31.3327C31.7416 5.81234 32.1337 5.94842 32.4228 6.19066C32.7119 6.43289 32.8743 6.76143 32.8743 7.104V21.3123H31.6718C31.2384 20.9128 30.71 20.5935 30.1206 20.375C29.5312 20.1565 28.8938 20.0437 28.2493 20.0437C27.6049 20.0437 26.9675 20.1565 26.3781 20.375C25.7887 20.5935 25.2603 20.9128 24.8268 21.3123H15.916V7.104ZM12.8327 14.854H6.66602L8.51601 12.7873C8.65962 12.6269 8.84583 12.4967 9.05989 12.407C9.27396 12.3174 9.51001 12.2707 9.74935 12.2707H12.8327V14.854ZM8.20768 23.8957C8.20768 23.6402 8.2981 23.3905 8.4675 23.1781C8.6369 22.9656 8.87768 22.8001 9.15938 22.7023C9.44108 22.6046 9.75106 22.579 10.0501 22.6288C10.3492 22.6787 10.6239 22.8017 10.8395 22.9823C11.0551 23.163 11.2019 23.3931 11.2614 23.6437C11.3209 23.8942 11.2903 24.1539 11.1737 24.39C11.057 24.626 10.8594 24.8277 10.6059 24.9697C10.3523 25.1116 10.0543 25.1873 9.74935 25.1873C9.34047 25.1873 8.94834 25.0513 8.65923 24.809C8.37011 24.5668 8.20768 24.2382 8.20768 23.8957ZM5.12435 17.4373H12.8327V21.0282C11.9228 20.3469 10.7285 19.9945 9.50992 20.0477C8.29132 20.1009 7.14721 20.5555 6.32685 21.3123H5.12435V17.4373Z" fill="#404040"/>
</svg>
