<svg width="32" height="33" viewBox="0 0 32 33" fill="none" xmlns="http://www.w3.org/2000/svg">
<rect y="0.5" width="32" height="32" rx="16" fill="white"/>
<path fill-rule="evenodd" clip-rule="evenodd" d="M16.0002 17.5C18.7617 17.5 21.0002 15.2614 21.0002 12.5C21.0002 9.73858 18.7617 7.5 16.0002 7.5C13.2388 7.5 11.0002 9.73858 11.0002 12.5C11.0002 15.2614 13.2388 17.5 16.0002 17.5ZM24.2591 22.7183C24.5338 23.2117 24.2046 23.7902 23.6518 23.9054C18.6049 24.9572 13.3955 24.9572 8.34868 23.9054C7.79586 23.7902 7.46663 23.2117 7.74132 22.7183C8.34691 21.6307 9.30093 20.6749 10.5214 19.9465C12.0932 19.0085 14.019 18.5 16.0002 18.5C17.9814 18.5 19.9073 19.0085 21.4791 19.9465C22.6995 20.6749 23.6535 21.6307 24.2591 22.7183Z" fill="#05C7F2"/>
</svg>
