<svg width="24" height="24" viewBox="0 0 24 24" fill="none" xmlns="http://www.w3.org/2000/svg">
<path fill-rule="evenodd" clip-rule="evenodd" d="M4.29265 2.70718L20.2926 18.7072L21.7069 17.293L19.6067 15.1928C20.1512 14.6485 20.6076 14.1291 20.9597 13.7016C20.9833 13.6729 21.0079 13.6435 21.0332 13.6131C21.3466 13.2377 21.77 12.7305 21.77 12.0001C21.77 11.2696 21.3466 10.7624 21.0332 10.387L21.0331 10.387C21.0078 10.3567 20.9833 10.3272 20.9597 10.2986C20.2198 9.40032 19.0196 8.09598 17.5087 7.00892C16.0056 5.92755 14.1097 5.00008 11.9998 5.00008C11.2194 5.00008 10.4683 5.12695 9.75547 5.34157L5.70686 1.29297L4.29265 2.70718ZM11.4435 7.02958L18.1925 13.7786C18.6789 13.2923 19.0922 12.823 19.4159 12.43C19.5157 12.3089 19.5902 12.2183 19.6519 12.1386C19.7008 12.0755 19.7319 12.0315 19.7522 12.0001C19.7319 11.9686 19.7008 11.9247 19.6519 11.8616C19.5902 11.7819 19.5157 11.6913 19.4159 11.5701C18.7357 10.7443 17.6598 9.58146 16.3406 8.63241C15.0136 7.67767 13.5256 7.00008 11.9998 7.00008C11.8137 7.00008 11.6282 7.01015 11.4435 7.02958ZM16.5189 17.6405L15.0496 16.1712C14.0774 16.6806 13.0475 17.0001 11.9998 17.0001C10.474 17.0001 8.98592 16.3225 7.6589 15.3677C6.33978 14.4187 5.26384 13.2559 4.58362 12.43C4.48385 12.3089 4.40934 12.2183 4.34761 12.1386C4.29874 12.0755 4.26762 12.0316 4.24731 12.0001C4.26762 11.9686 4.29874 11.9247 4.34761 11.8616C4.40934 11.7819 4.48385 11.6913 4.58362 11.5701C5.24903 10.7622 6.2931 9.63194 7.57307 8.69471L6.14434 7.26598C4.79618 8.29624 3.72222 9.47012 3.03985 10.2986C3.01632 10.3272 2.99179 10.3566 2.96655 10.3868L2.96648 10.3869L2.96638 10.387L2.96636 10.387C2.65294 10.7624 2.22949 11.2696 2.22949 12.0001C2.22949 12.7305 2.65294 13.2377 2.96636 13.6131L2.96658 13.6134C2.99181 13.6436 3.01633 13.673 3.03985 13.7015C3.77972 14.5998 4.97993 15.9042 6.49087 16.9912C7.99391 18.0726 9.88983 19.0001 11.9998 19.0001C13.6698 19.0001 15.2057 18.419 16.5189 17.6405ZM8.66652 9.78807C8.24523 10.4216 7.99976 11.1822 7.99976 12.0001C7.99976 14.2092 9.79062 16.0001 11.9998 16.0001C12.8176 16.0001 13.5782 15.7546 14.2118 15.3333L12.7379 13.8594C12.5095 13.9502 12.2605 14.0001 11.9998 14.0001C10.8952 14.0001 9.99976 13.1046 9.99976 12.0001C9.99976 11.7394 10.0496 11.4903 10.1404 11.2619L8.66652 9.78807Z" fill="#33363F"/>
</svg>
