<svg width="24" height="24" viewBox="0 0 24 24" fill="none" xmlns="http://www.w3.org/2000/svg">
<path fill-rule="evenodd" clip-rule="evenodd" d="M4.58362 11.57C5.26385 10.7442 6.33978 9.58138 7.6589 8.63233C8.98592 7.6776 10.474 7 11.9998 7C13.5256 7 15.0136 7.6776 16.3406 8.63233C17.6598 9.58138 18.7357 10.7442 19.4159 11.57C19.5157 11.6912 19.5902 11.7818 19.6519 11.8615C19.7008 11.9246 19.7319 11.9685 19.7522 12C19.7319 12.0315 19.7008 12.0754 19.6519 12.1385C19.5902 12.2182 19.5157 12.3088 19.4159 12.43C18.7357 13.2558 17.6598 14.4186 16.3406 15.3677C15.0136 16.3224 13.5256 17 11.9998 17C10.474 17 8.98592 16.3224 7.6589 15.3677C6.33978 14.4186 5.26384 13.2558 4.58362 12.43C4.48385 12.3088 4.40934 12.2182 4.34761 12.1385C4.29874 12.0754 4.26762 12.0315 4.24731 12C4.26762 11.9685 4.29874 11.9246 4.34761 11.8615C4.40934 11.7818 4.48385 11.6912 4.58362 11.57ZM11.9998 5C9.88983 5 7.99391 5.92747 6.49087 7.00884C4.97993 8.0959 3.77972 9.40024 3.03985 10.2985C3.01626 10.3272 2.99168 10.3566 2.96638 10.3869L2.96636 10.3869C2.65294 10.7624 2.22949 11.2696 2.22949 12C2.22949 12.7304 2.65294 13.2376 2.96636 13.6131L2.96658 13.6133C2.99181 13.6435 3.01633 13.6729 3.03985 13.7015C3.77972 14.5998 4.97993 15.9041 6.49087 16.9912C7.99391 18.0725 9.88983 19 11.9998 19C14.1097 19 16.0056 18.0725 17.5087 16.9912C19.0196 15.9041 20.2198 14.5998 20.9597 13.7015C20.9833 13.6728 21.0079 13.6434 21.0332 13.6131C21.3466 13.2376 21.77 12.7304 21.77 12C21.77 11.2696 21.3466 10.7624 21.0332 10.3869L21.0331 10.3869C21.0078 10.3566 20.9833 10.3272 20.9597 10.2985C20.2198 9.40025 19.0196 8.0959 17.5087 7.00885C16.0056 5.92747 14.1097 5 11.9998 5ZM13.9998 12C13.9998 13.1046 13.1043 14 11.9998 14C10.8952 14 9.99977 13.1046 9.99977 12C9.99977 10.8954 10.8952 10 11.9998 10C13.1043 10 13.9998 10.8954 13.9998 12ZM15.9998 12C15.9998 14.2091 14.2089 16 11.9998 16C9.79063 16 7.99977 14.2091 7.99977 12C7.99977 9.79086 9.79063 8 11.9998 8C14.2089 8 15.9998 9.79086 15.9998 12Z" fill="#33363F"/>
</svg>
