<svg width="582" height="227" viewBox="0 0 582 227" fill="none" xmlns="http://www.w3.org/2000/svg">
<path d="M183.523 95.0642C187.879 93.8433 192.419 93.3119 196.615 91.5532C199.394 90.3513 202.624 90.4398 205.218 88.8393C208.575 87.979 211.862 86.8719 215.181 85.8851C218.666 84.7907 222.36 85.0437 225.959 84.8666C225.825 84.5819 225.545 84.0252 225.406 83.7469C227.059 83.7405 228.718 83.6709 230.371 83.6203C236.132 84.0189 241.505 81.267 247.234 81.2734C250.108 81.1405 253.013 81.5454 255.868 81.0836C255.976 80.8369 256.193 80.3434 256.301 80.0904C259.308 80.0841 262.424 80.6914 265.323 79.5906C267.428 78.7746 269.685 78.4899 271.936 78.5911C273.958 78.8378 276.043 78.8948 277.995 78.2116C281.778 76.8515 285.835 77.5853 289.758 77.3386C290.489 77.6991 291.189 78.142 291.984 78.3824C299.41 79.3313 306.907 78.7999 314.359 78.5658C318.123 79.3692 321.518 77.1804 325.244 77.1488C326.7 77.5283 328.124 78.3571 329.663 78.2305C330.382 77.7687 330.782 76.9653 331.316 76.3201C334.451 76.0987 336.422 78.7366 339.073 79.8247C345.158 82.4437 351.987 81.3113 358.396 81.1342C358.657 78.142 356.991 75.3838 357.468 72.3853C357.97 68.6149 358.174 64.7497 359.325 61.0996C360.291 58.2339 359.77 55.1278 360.641 52.2304C361.55 48.6815 361.404 44.9934 361.467 41.3623C364.895 44.772 369.301 46.828 373.402 49.2825C374.826 50.2504 376.613 49.9341 378.234 50.1112C379.97 50.2124 381.572 51.1107 382.863 52.2241C383.709 55.3492 382.444 58.4996 382.393 61.6373C382.285 67.5648 382.24 73.4923 382.272 79.4135C382.31 80.5269 381.827 81.5454 381.502 82.5765C381.674 81.6592 381.77 80.7357 381.782 79.7994C381.318 80.6281 380.886 81.4758 380.46 82.3172C378.603 81.6529 376.664 81.1974 374.686 81.1785C376.085 83.7279 379.105 84.5313 381.305 86.2203C383.003 87.6058 385.165 88.1751 387.219 88.8267C390.487 89.8705 393.997 91.0218 397.443 90.1931C397.875 89.0797 397.92 87.6058 396.762 86.9099C393.685 85.5055 390.112 85.3347 387.276 83.3736C387.511 80.976 388.077 78.6038 388.09 76.1872C388.09 68.5896 388.217 60.9857 388.153 53.3881C388.185 51.8003 387.886 50.0037 386.449 49.0611C381.871 45.9044 376.416 44.4114 371.577 41.7482C368.659 40.2679 366.058 38.2625 363.171 36.7379C361.48 35.77 359.274 35.6562 357.538 36.5608C356.686 39.4392 356.921 42.5136 356.33 45.4489C355.739 55.2733 352.4 64.8573 353.221 74.7702C350.073 74.6816 346.926 74.7259 343.779 74.7639C343.575 60.0558 343.422 45.3414 343.785 30.6396C343.67 28.843 344.936 26.3379 343.073 25.117C339.563 23.1243 335.869 20.7836 331.634 21.2391C330.261 20.752 328.887 20.1826 327.406 20.1637C323.267 19.9929 319.076 19.1199 314.982 20.1447C314.816 21.1568 314.645 22.169 314.486 23.1812C314.613 23.5291 314.88 24.225 315.007 24.5729C313.958 25.6104 312.127 26.3505 312.368 28.1092C312.324 43.2791 312.324 58.449 312.279 73.6188C307.32 74.03 302.354 73.4164 297.395 73.5303C297.96 64.7624 297.719 55.9691 297.229 47.2076C296.651 42.6718 296.174 38.0917 294.838 33.7014C292.81 33.461 290.769 33.4104 288.734 33.4104C289.523 30.4245 289.752 27.3501 289.974 24.2819C289.892 22.7004 291.221 21.6882 292.092 20.5559C294.19 19.6639 297.286 20.7014 298.488 18.2911C298.889 16.058 296.422 14.8308 295.334 13.1987C292.359 9.12469 288.188 5.8984 283.457 4.10813C281.594 3.71591 279.254 3.30472 277.646 4.57626C273.939 8.35291 271.281 12.9709 267.93 17.0386C266.919 18.0191 267.275 19.5184 267.167 20.7773C268.731 21.0746 270.302 21.3846 271.885 21.606C272.68 24.7058 272.355 27.9257 272.196 31.0761C270.308 31.2343 268.413 31.6075 266.9 32.8158C266.62 32.6956 266.061 32.4489 265.781 32.3223C265.317 35.6625 267.307 38.6864 266.976 42.0139C266.747 44.7783 267.326 47.4986 267.421 50.2441C266.652 58.4806 267.053 66.7614 266.805 75.0232C264.789 74.4729 262.799 73.4227 260.656 73.6694C259.346 74.049 258.45 75.1687 257.439 76.0038C257.032 71.1011 257.382 66.1667 256.962 61.2704C256.262 57.2027 255.995 53.0781 255.747 48.9599C254.215 48.6752 252.702 48.226 251.341 47.4606C248.048 45.6577 244.461 44.3102 240.704 43.9623C239.33 43.3993 237.995 42.4504 236.463 42.501C235.064 42.7414 233.328 43.627 233.271 45.2212C233.023 47.2012 233.016 49.2192 232.482 51.1613C231.802 55.52 232.482 60.0115 231.408 64.3259C230.492 67.6723 230.918 71.2213 229.996 74.5677C229.545 75.8772 229.888 77.9459 227.974 77.9585C227.625 72.7269 227.796 67.4889 228.286 62.2699C228.388 51.718 228.47 41.1535 228.368 30.5953C228.432 28.1218 225.475 27.3311 224.255 25.5345C224.007 22.9408 224.375 20.3092 223.943 17.7281C222.417 14.5271 218.532 16.1719 215.817 16.2858C215.582 11.0099 213.967 5.8731 214.406 0.552884C213.217 0.502275 212.021 0.439015 210.832 0.38208C210.177 5.94901 211.856 11.4337 211.417 17.007C210.057 17.2031 208.709 17.4371 207.361 17.6522C205.135 21.043 206.871 25.1676 206.063 28.8746C205.231 30.0766 203.52 29.8552 202.268 30.2853C199.928 34.0683 201.753 38.5598 201.772 42.6528C201.797 50.4655 201.861 58.2782 201.892 66.0908C202 68.0646 201.104 69.8738 200.722 71.7716C200.252 75.6305 201.047 79.559 200.443 83.4052C199.47 84.7464 198.103 86.0053 196.361 86.1444C192.463 86.5809 188.794 88.0296 184.979 88.8583C182.099 89.3834 179.289 92.1036 180.376 95.2097C181.419 95.2413 182.493 95.3362 183.523 95.0642ZM322.764 24.4021C325.81 25.1929 328.976 25.1043 332.098 25.2941C335.074 26.1987 338.215 26.2936 341.203 27.1603C340.758 29.3364 340.358 31.5189 339.925 33.6951C336.95 32.3097 333.446 31.8985 330.293 32.879C329.116 33.8722 327.514 35.7005 328.862 37.1871C331.005 39.6922 334.68 38.3447 337.541 38.68C337.91 38.68 338.647 38.7053 339.01 38.7117C339.118 40.2805 339.131 41.8557 339.143 43.4309C335.907 43.8231 332.022 43.627 329.58 46.1574C328.506 47.1 329.065 48.5107 329.568 49.5798C329.905 49.7949 330.566 50.2251 330.903 50.4402C333.313 51.6737 336.098 51.3132 338.717 51.427C338.641 53.4767 338.552 55.5326 338.406 57.576C335.837 57.9555 333.071 58.0567 330.877 59.6129C330.846 60.9984 330.877 62.3838 330.916 63.7692C333.535 63.8641 336.155 63.8198 338.781 63.7312C338.978 66.3755 339.201 69.0324 339.029 71.6831C338.705 72.3473 338.374 73.0052 338.043 73.6568C331.125 73.4797 324.208 73.2583 317.322 74.068C316.851 64.9711 317.875 55.83 317.169 46.7268C316.985 41.59 317.334 36.4469 316.927 31.3165C316.711 28.6975 316.711 26.0595 317.042 23.4532C318.968 23.6367 320.895 23.896 322.764 24.4021ZM280.678 31.6328C279.458 31.5189 278.237 31.4177 277.022 31.3165C277.067 28.2926 276.641 25.3067 275.808 22.4094C279.273 22.2576 282.745 22.1184 286.223 22.226C286.236 25.3004 285.924 28.3622 285.81 31.4367C284.099 31.5632 282.389 31.6581 280.678 31.6328ZM279.718 8.87797C281.416 8.35924 283.324 8.76411 284.773 9.76362C287.183 11.3957 289.536 13.4201 290.585 16.2162C285.174 16.1719 279.782 15.6405 274.358 15.8936C275.344 13.0595 277.569 10.8833 279.718 8.87797ZM272.222 36.061C274.187 36.061 276.151 36.1243 278.103 36.3267C282.262 38.098 286.852 37.1681 291.221 37.6679L291.844 37.7944C292.251 37.8829 293.071 38.0537 293.478 38.136C293.3 39.7048 293.554 41.4319 292.759 42.8679C292.136 44.0255 290.636 43.7472 289.555 43.9749C288.353 44.0445 287.145 44.0888 285.95 44.1331C285.848 45.6134 285.81 47.1 285.816 48.5866C287.959 48.8017 290.121 48.6752 292.181 48.0173C292.117 50.5667 292.104 53.1224 292.092 55.6781C290.152 56.1589 287.711 55.9122 286.312 57.5886C285.905 58.7779 286.356 60.1064 287.425 60.7833C288.531 61.283 289.676 61.6942 290.82 62.0991C291.074 65.4582 291.017 68.83 290.744 72.1891C290.127 71.8412 289.517 71.4933 288.913 71.1517C289.046 71.9361 289.18 72.7205 289.326 73.505C283.737 75.1434 277.862 74.941 272.101 75.0296C272.425 67.2295 271.948 59.4168 272.088 51.6168C272.127 50.0922 272.146 48.5677 272.107 47.0431C271.853 43.3803 272.038 39.7175 272.222 36.061ZM236.717 60.4037C236.8 56.5701 237.048 52.7492 237.423 48.9346C242.637 50.7438 248.016 51.8762 253.478 52.6163C252.854 54.2421 252.212 55.8553 251.697 57.519C249.3 57.0572 246.859 56.8674 244.423 57.1268C244.601 58.0884 244.302 59.2397 244.945 60.0621C246.986 61.1312 249.376 60.6378 251.576 60.5935C251.729 63.6806 251.411 66.7804 251.742 69.8612C252.015 72.7711 251.379 75.6622 251.354 78.5721C245.574 78.7176 239.903 80.8432 234.11 80.1473C234.676 73.5239 236.056 67.0081 236.717 60.4037ZM210.813 21.4289C213.63 21.1695 216.434 20.8216 219.251 20.6318C219.549 22.8333 219.6 25.06 219.486 27.2741C216.612 27.4133 213.751 27.698 210.877 27.6221C210.737 25.5661 210.578 23.4912 210.813 21.4289ZM207.392 75.8709C208.486 72.069 208.092 68.0582 207.952 64.1614C207.354 58.9108 207.558 53.6222 207.494 48.3526C207.462 43.956 207.316 39.5593 207.539 35.1691C212.339 34.2328 217.063 32.6956 221.985 32.5311C222.061 44.1331 221.826 55.7414 222.182 67.3371C222.284 72.4232 222.512 77.522 222.106 82.6018C218.38 83.0953 214.641 83.7026 211.087 84.9804C209.739 84.9551 208.391 84.8666 207.043 84.8033C206.826 81.8301 206.528 78.7746 207.392 75.8709Z" fill="white"/>
<path d="M377.63 138.322C378.52 137.544 380.142 137.101 380.053 135.665C380.212 131.806 379.303 127.896 377.573 124.449C377.134 123.74 376.689 122.81 375.799 122.627C375.036 120.95 374.171 119.154 372.499 118.205C370.585 117.11 368.392 116.63 366.319 115.927C363.292 115.687 360.24 115.769 357.258 115.156C354.302 114.548 351.421 115.611 348.503 115.89C347.104 116.022 345.826 116.611 344.529 117.066C342.869 117.673 341.064 117.433 339.366 117.787C336.823 119.173 334.731 121.482 333.777 124.227C332.461 127.637 330.89 130.939 329.25 134.203C327.558 137.31 327.845 140.985 326.554 144.224C325.39 147.248 326.344 150.55 325.606 153.637C323.686 159.021 325.6 164.841 324.328 170.338C324.042 171.236 324.278 172.147 324.519 173.026C321.308 177.651 322.351 183.509 322.116 188.797C322.23 193.624 322.726 199.444 327.241 202.322C331.418 204.473 336.339 203.727 340.835 203.366C343.34 202.303 345.228 200.039 346.551 197.736C349.679 188.74 348.624 179.112 348.802 169.775C348.719 168.314 349.73 167.175 350.359 165.954C353.049 165.498 355.414 164.031 357.481 162.316C357.862 161.867 358.244 161.424 358.638 160.988C360.749 160.09 362.548 158.628 363.909 156.781C366.173 156.313 367.349 153.726 368.894 152.15C372.003 148.924 375.367 145.78 377.344 141.694C377.637 140.593 377.554 139.441 377.63 138.322ZM350.099 145.805C350.124 142.788 349.495 139.657 350.27 136.715C352.489 133.602 355.789 129.921 360.081 130.99C360.666 133.969 358.129 135.943 356.68 138.183C355.16 140.163 354.391 142.579 352.941 144.597C352.356 145.584 351.059 145.47 350.099 145.805Z" fill="white"/>
<path d="M279.375 127.194C279.012 126.606 278.637 125.828 277.9 125.676C277.264 124.278 276.545 122.785 275.153 121.994C273.557 121.083 271.732 120.685 270.003 120.096C267.478 119.894 264.941 119.964 262.455 119.451C261.343 119.223 260.243 119.28 259.149 119.432C258.469 121.501 256.714 123.171 253.872 123.171C252.034 123.171 250.648 122.469 249.72 121.419C248.995 121.469 248.264 121.494 247.551 121.64C245.434 122.791 243.692 124.714 242.897 127.004C241.804 129.845 240.494 132.597 239.127 135.317C237.715 137.904 237.957 140.966 236.882 143.661C235.916 146.179 236.711 148.931 236.094 151.505C234.491 155.99 236.094 160.836 235.032 165.416C234.797 166.163 234.987 166.922 235.191 167.656C232.514 171.508 233.385 176.386 233.188 180.795C233.283 184.818 233.697 189.664 237.454 192.062C240.932 193.852 245.034 193.232 248.779 192.928C250.864 192.043 252.441 190.157 253.541 188.241C255.487 182.636 255.487 176.74 255.429 170.869C255.016 170.079 254.762 169.187 254.698 168.25C254.438 164.6 254.953 161.165 256.466 158.205C254.927 153.327 255.264 148.279 255.302 143.123C255.309 141.776 255.703 140.675 256.339 139.815C256.364 138.999 256.44 138.195 256.65 137.404C258.5 134.811 261.247 131.743 264.821 132.635C264.897 133.021 264.903 133.387 264.865 133.735C265.889 133.729 266.868 133.976 267.631 134.551C270.759 136.898 272.597 139.929 273.271 143.294C274.848 143.212 276.444 143.269 278.103 143.452C278.504 142.839 278.879 142.212 279.203 141.548C279.445 140.631 279.375 139.669 279.438 138.739C280.182 138.094 281.53 137.721 281.454 136.525C281.588 133.312 280.831 130.054 279.388 127.182L279.375 127.194Z" fill="white"/>
<path d="M94.7163 151.284C97.3804 151.404 100.045 151.455 102.715 151.442C103.345 148.058 105.824 144.173 103.357 140.998C102.175 138.625 99.0018 138.157 96.7573 139.176C93.3492 141.099 91.9122 145.299 92.2937 149.019C92.2874 150.253 93.5145 151.303 94.7163 151.284Z" fill="white"/>
<path d="M500.359 141.599C499.767 139.454 499.373 136.108 496.569 135.899C494.235 135.538 491.813 135.058 489.473 135.532C487.864 136.639 486.65 138.195 485.429 139.695C483.509 142.06 483.051 145.154 482.263 148.001C480.508 155.143 478.123 162.133 476.763 169.37C476.343 172.672 476.292 176.025 476.445 179.353C476.426 181.972 479.128 183.502 479.484 186.02C479.98 188.709 480.044 191.695 481.989 193.839C483.674 196.256 486.968 196.408 489.619 195.933C491.489 195.421 492.582 193.605 492.824 191.783C493.803 188.747 495.215 185.875 496.219 182.857C496.633 180.415 496.995 177.942 498.127 175.696C499.678 172.799 498.858 169.37 500.041 166.365C501.102 163.107 500.46 159.641 500.988 156.319C501.961 152.454 501.42 148.45 501.376 144.521C501.414 143.446 500.956 142.459 500.359 141.599Z" fill="white"/>
<path d="M324.64 55.0771C325.683 52.7744 324.678 50.1365 323.038 48.3842C321.989 48.6498 320.933 48.8333 319.91 49.1623C319.433 51.3005 318.86 53.6981 320.011 55.735C321.416 56.8737 323.413 56.1336 324.64 55.0771Z" fill="white"/>
<path d="M565.57 168.712C563.98 165.138 563.478 161.14 561.488 157.749C560.063 156.256 558.518 154.871 556.916 153.58C554.678 152.182 552.033 151.676 549.668 150.55C546.558 148.969 542.718 149.158 540.041 146.716C543.487 143.104 546.724 139.315 549.979 135.545C553.037 134.273 556.573 131.812 556.134 128.055C556.426 125.088 553.807 123 551.511 121.64C549.248 120.969 546.787 121.184 544.473 121.444C540.365 122.627 536.805 125.081 532.945 126.846C531.247 127.574 529.747 128.649 528.323 129.807C525.652 131.566 524.018 134.431 521.398 136.253C518.639 138.17 517.355 141.453 516.833 144.635C516.916 148.81 516.102 153.15 517.787 157.129C519.377 159.571 521.761 161.703 524.775 162.082L525.061 162.272C529.416 162.715 533.746 164.246 538.159 163.303C540.791 163.31 543.233 164.316 545.725 165.03C545.783 165.967 545.853 166.916 545.732 167.852C541.993 170.774 537.936 173.28 533.543 175.108C531.553 175.823 529.919 177.157 528.189 178.315C525.315 178.897 522.365 178.22 519.523 177.739C517.666 177.531 515.759 176.183 515.657 174.203C515.422 172.476 515.008 170.61 513.412 169.617C511.632 167.864 508.955 168.959 507.283 170.268C506.711 171.375 506.609 172.634 506.386 173.836C506.151 173.817 505.681 173.767 505.452 173.748C505.382 175.494 505.388 177.246 505.445 178.992C505.852 181.845 506.151 185.046 508.224 187.247C510.367 192.732 516.929 193.542 520.966 197.072C524.8 197.388 528.59 198.166 532.456 198.16C535.158 198.672 538.528 199.115 540.791 197.211C543.532 196.446 546.202 195.414 548.866 194.415C550.971 193.15 552.993 191.752 555.136 190.543C557.73 188.329 560.108 185.786 561.856 182.845C563.115 180.757 563.745 178.385 564.813 176.209C566.04 173.918 565.602 171.205 565.57 168.712Z" fill="white"/>
<path d="M419.474 142.895C415.049 138.796 408.405 137.531 402.625 139.03C398.276 140.182 393.335 140.656 390.182 144.243C387.435 147.684 385.031 151.48 383.683 155.693C381.782 159.349 380.593 163.303 378.832 167.023C377.395 170.287 377.528 173.925 377.096 177.398C376.823 179.175 377.331 180.94 377.579 182.699C377.045 184.641 379.118 186.305 380.536 187.406C380.663 187.804 380.803 188.203 380.962 188.601C382.068 189.455 383.226 190.543 384.758 190.391C386.907 189.917 388.719 188.101 391.065 188.532C394.562 188.513 399.02 189.607 401.646 186.621C404.481 186.596 406.611 184.451 408.9 183.06C412.239 180.333 415.857 177.809 418.432 174.298C420.727 171.205 422.259 167.624 423.531 164.012C425 159.761 424.548 155.2 424.364 150.797C424.23 147.494 421.732 145.027 419.474 142.895ZM403.197 170.439C400.73 172.059 398.149 174.488 394.957 173.95C393.736 174.001 393.571 172.609 393.437 171.723C393.259 169.617 393.138 167.472 393.488 165.378C394.709 162.905 396.883 161.077 398.753 159.096C400.425 157.3 402.771 155.997 405.289 156.079C406.44 155.858 407.171 157.003 407.705 157.844C408.487 162.557 405.957 166.859 403.197 170.439Z" fill="white"/>
<path d="M324.716 41.4129C325.377 38.0727 325.899 33.0245 321.582 32.0123C319.28 33.9861 319.7 37.1617 320.011 39.8503C320.92 41.6912 322.91 41.8493 324.716 41.4129Z" fill="white"/>
<path d="M214.183 43.2538C215.537 44.5886 217.553 44.0193 219.2 43.7156C219.003 42.6212 219.372 41.1789 218.252 40.483C216.733 39.2368 214.685 40.1793 212.994 40.4324C213.223 41.4319 213.325 42.5579 214.183 43.2538Z" fill="white"/>
<path d="M279.502 47.3784C279.648 46.1511 279.782 44.9239 279.884 43.6903C278.173 43.6966 276.495 43.9497 274.822 44.266C274.81 44.8859 274.797 45.5122 274.791 46.1322C275.375 46.7268 275.96 47.3278 276.545 47.9288C277.531 47.739 278.51 47.5492 279.502 47.3784Z" fill="white"/>
<path d="M213.178 53.831C214.119 53.831 215.06 53.831 216.008 53.831C216.555 52.4835 216.287 51.0791 215.601 49.8392C214.781 50.048 213.96 50.2568 213.146 50.4655C213.159 51.5852 213.166 52.7113 213.178 53.831Z" fill="white"/>
<path d="M278.758 60.1697C278.764 58.8475 278.745 57.5254 278.714 56.2032C277.715 56.2728 276.723 56.3487 275.731 56.431C275.814 57.5064 275.903 58.5818 275.998 59.6573C276.908 59.8344 277.83 60.0115 278.758 60.1697Z" fill="white"/>
<path d="M372.283 61.9915C372.245 60.5302 371.189 59.2903 370.795 57.9049C370.967 57.4051 371.31 56.4183 371.488 55.9185C371.736 53.3122 368.729 52.5087 366.783 51.8888C365.721 52.1229 364.736 52.572 363.737 52.9642C363.82 54.0207 363.826 55.0898 364.087 56.1273C364.882 57.3482 366.357 57.6582 367.718 57.8226C366.115 58.4552 364.081 59.556 364.481 61.6119C364.469 64.0348 367.463 64.2942 369.288 64.5283C370.503 63.9969 371.482 63.0353 372.283 61.9915Z" fill="white"/>
<path d="M321.327 64.3955C320.933 66.1288 321.181 67.9317 321.206 69.6904C322.707 69.6904 324.214 69.6651 325.727 69.6145C326.191 66.7235 327.495 62.8013 324.188 61.0933C323.184 62.1434 322.026 63.1049 321.327 64.3955Z" fill="white"/>
<path d="M213.833 66.4514C215.194 68.0203 217.178 66.5843 218.348 65.5468C218.094 64.5346 217.839 63.5288 217.61 62.5166C216.091 62.4913 214.571 62.4976 213.051 62.5229C212.581 63.921 212.441 65.5151 213.833 66.4514Z" fill="white"/>
<path d="M245.841 63.8387C244.659 63.8451 243.476 63.8451 242.306 63.8387C242.064 65.0913 241.899 66.3565 241.81 67.628C243.228 67.5332 244.646 67.3687 246.057 67.1662C246 66.0529 245.918 64.9458 245.841 63.8387Z" fill="white"/>
<path d="M358.778 72.0689C360.685 74.7132 364.271 73.6251 366.999 73.3468C367.19 72.6509 367.387 71.9551 367.59 71.2655C368.328 71.0631 369.066 70.867 369.809 70.6772C369.797 69.5638 370.483 68.1088 369.383 67.2991C367.546 65.3949 364.971 64.4966 362.351 65.0027C362.656 66.23 363.031 67.4319 363.432 68.6339C361.353 68.6465 357.722 69.1336 358.778 72.0689Z" fill="white"/>
<path d="M276.03 66.0655C275.935 66.9828 275.839 67.9064 275.757 68.8236C277.105 68.8489 278.453 68.8553 279.813 68.8426C279.775 67.8368 279.731 66.8373 279.693 65.8314C278.465 65.8947 277.245 65.9706 276.03 66.0655Z" fill="white"/>
<path d="M243.667 75.9531C245.282 75.8646 247.157 76.4466 248.607 75.6115C250.648 74.5551 249.287 71.0378 247.164 71.2212C245.561 71.0125 244.264 72.0879 243.075 72.9862C243.266 73.9731 243.463 74.9663 243.667 75.9531Z" fill="white"/>
<path d="M327.151 107.09C327.565 104.775 328.499 102.181 327.374 99.9353C328.773 98.9484 330.502 97.6959 330.292 95.7474C330.133 94.1912 330.458 92.6666 331.259 91.3129C330.305 90.326 329.377 89.2442 328.124 88.6306C324.405 90.0793 322.071 93.9698 317.995 94.672C315.738 94.9883 313.735 96.1649 312.527 98.1007C309.348 100.789 306.277 103.604 303.142 106.337C301.26 108.982 300.535 112.48 301.298 115.656C302.284 118.502 305.412 119.337 307.816 120.615C310.181 122.108 313.125 121.324 315.605 120.565C318.135 117.806 319.547 114.118 322.624 111.835C324.239 110.392 326.681 109.424 327.151 107.09Z" fill="white"/>
<path d="M318.962 133.894C317.487 129.642 313.43 127.087 309.622 125.157C305.4 124.588 300.58 123.835 296.772 126.245C295.818 124.12 293.37 124.841 291.52 124.841C288.735 126.473 286.363 128.763 284.417 131.306C283.578 133.21 282.332 134.836 280.939 136.361C280.571 137.923 280.761 139.549 280.812 141.137C280.132 140.789 279.452 140.447 278.771 140.118C278.447 142.244 277.315 144.066 276.431 145.983C274.587 151.303 273.697 156.882 272.222 162.304C271.408 165.005 272.54 167.902 271.599 170.553C269.698 174.57 271.472 179.093 273.125 182.876C274.797 185.21 276.393 187.602 277.919 190.037C281.353 192.732 285.625 194.364 289.981 194.801C294.533 195.092 299.086 193.479 302.621 190.657C305.463 188.26 308.471 185.906 310.391 182.661C312.82 177.6 316.196 173.039 318.454 167.89C319.891 163.822 320.87 159.571 321.181 155.263C321.486 151.841 321.823 148.317 320.882 144.958C319.865 141.32 320.774 137.329 318.962 133.894ZM302.958 160.216C302.272 160.665 301.331 160.912 300.974 161.722C299.48 164.385 298.19 167.219 296.11 169.509C294.959 170.831 293.268 171.451 291.768 172.28C290.699 164.594 290.286 156.629 292.276 149.044C292.524 147.317 294.241 146.501 295.405 145.426C297.185 144.066 298.883 141.839 301.413 142.345C302.125 143.18 302.977 144.085 303.035 145.242C303.346 149.051 303.365 152.922 302.609 156.68C302.291 157.869 302.71 159.052 302.958 160.216Z" fill="white"/>
<path d="M63.5923 126.41C64.2154 126.283 64.8449 126.157 65.4743 126.03C66.4535 123.633 68.6726 121.393 67.9922 118.629C65.5443 120.558 64.3616 123.5 63.5923 126.41Z" fill="white"/>
<path d="M487.674 129.421C489.308 130.458 491.813 130.591 493.123 128.972C494.502 127.314 495.838 125.556 496.683 123.569C497.103 121.292 497.058 118.951 496.963 116.649C497.014 115.377 495.895 114.599 494.998 113.916C491.921 113.239 488.913 114.555 485.849 114.637C484.297 116.699 483.026 119.135 483.782 121.785C484.564 124.468 484.749 128.143 487.674 129.421Z" fill="white"/>
<path d="M73.0283 143.996C73.4607 145.211 73.8676 146.451 74.5098 147.583C76.2456 147.716 76.0612 145.059 76.7607 143.914C75.5144 143.882 74.2682 143.914 73.0283 143.996Z" fill="white"/>
<path d="M220.071 177.246C219.912 177.012 219.594 176.544 219.435 176.31C216.873 176.974 216.091 179.84 214.183 181.39C213.229 182.421 210.947 184.04 210.145 182.079C210.915 178.935 211.29 175.728 211.341 172.501C212.117 168.516 212.746 164.499 213.611 160.526C213.776 156.832 215.029 153.333 215.766 149.74C216.351 145.35 217.07 140.985 217.68 136.607C219.015 133.349 220.007 129.978 220.001 126.429C226.372 125.67 232.857 124.847 238.847 122.45C241.079 121.703 242.319 119.647 243.52 117.794C244.493 114.618 244.226 111.24 244.112 107.976C242.865 107.843 241.626 107.723 240.379 107.602C231.999 107.71 223.663 108.754 215.397 110.089C213.242 110.285 211.335 111.638 209.128 111.474C202.916 111.297 196.768 112.265 190.613 112.916C187.567 113.239 184.839 114.751 182.15 116.111C178.456 118.053 178.557 123.576 181.094 126.416C183.816 130.357 189.099 130.756 193.487 130.465C193.442 134.583 193.372 138.708 193.48 142.832C193.614 145.97 192.132 148.848 191.477 151.853V150.259C189.983 152.859 190.123 156.003 188.947 158.736C188.718 156.212 188.807 153.669 188.438 151.164C188.464 150.076 187.306 149.74 186.601 149.19C186.384 147.754 186.028 146.261 185.024 145.16C182.43 142.263 178.735 140.555 174.958 139.815C170.794 137.885 165.828 138.511 161.854 140.612C160.112 141.491 158.147 141.833 156.456 142.832C152.488 143.844 149.601 147.014 146.785 149.778C144.165 152.486 140.217 153.068 137.298 155.339C136.885 155.858 136.459 156.37 136.026 156.876C135.124 156.99 134.221 157.11 133.318 157.237C136.402 154.592 138.513 151.062 139.727 147.222C141.081 143.035 143.714 139.467 145.678 135.589C146.34 129.921 146.314 124.208 146.549 118.515C143.663 117.136 139.937 117.072 137.826 114.409C136.77 112.961 137.215 111.05 137.387 109.405C140.579 108.349 143.796 109.291 146.861 110.259C147.115 110.038 147.618 109.595 147.872 109.367C147.357 106.913 145.252 105.293 143.497 103.68C141.355 101.953 139.269 99.9225 136.541 99.1887C133.42 98.3473 130.317 97.3099 127.093 96.9366C124.155 96.8734 121.218 96.7595 118.28 96.8101C117.435 94.4062 114.071 95.76 112.119 95.5322C108.158 92.3376 105.405 87.65 100.611 85.5497C98.5314 84.5692 96.3823 83.4178 94.0042 83.6076C86.7748 83.8417 79.52 83.9745 72.3541 84.9361C68.3357 85.2081 64.3108 85.3346 60.2924 85.575C57.7173 86.1823 55.4728 87.7638 52.8531 88.2699C51.2826 87.7132 49.7248 87.1249 48.1543 86.5619C48.2243 86.8782 48.3514 87.5171 48.4214 87.8334C45.3121 87.669 42.2602 88.1371 39.2336 88.7444C35.5458 88.3585 32.1313 89.94 28.5071 90.193C23.662 90.7055 19.1222 92.578 14.4425 93.8116C12.9228 94.1974 11.2887 94.3556 9.97256 95.2792C6.81882 97.3162 3.67145 99.6379 1.71308 102.908C-0.531406 106.514 0.377835 110.955 0.250669 114.966C0.0917104 118.679 1.83389 122.019 2.77493 125.511C4.55526 134.956 7.33385 144.192 10.5702 153.239C11.6702 155.554 13.1962 158.888 16.3627 158.192C21.2586 154.611 25.6903 150.354 29.1811 145.388C31.5591 141.542 33.651 137.531 35.6793 133.489C40.7596 124.854 45.1341 115.744 47.9509 106.122C49.267 107.324 49.5468 109.07 49.7693 110.753C49.1462 113.536 48.1925 116.225 47.2896 118.926C45.7636 124.006 44.1168 129.067 41.6625 133.786C40.2128 138.53 37.7902 142.857 35.4758 147.222C33.3966 150.733 30.5227 153.688 28.2718 157.078C27.8077 159.153 27.8967 161.33 27.9857 163.449C27.4452 165.682 28.2464 167.795 29.6325 169.534C30.1539 168.959 30.6689 168.383 31.1903 167.807C31.7498 168.364 32.3221 168.915 32.888 169.465C32.729 172.894 34.1787 176.082 34.2995 179.479C34.6365 184.331 34.4203 189.196 34.255 194.054C34.2105 197.078 33.0342 199.919 32.7417 202.917C31.9533 208.769 28.9776 214.127 28.6597 220.061L28.3291 219.308C28.0366 220.396 27.2036 221.775 28.1256 222.806C29.5689 224.451 30.9105 226.614 33.3394 226.766C33.3076 226.304 33.244 225.381 33.2059 224.919C33.6383 225.558 34.1406 226.241 34.9481 226.418C39.0047 226.95 43.144 226.614 47.0607 225.45C50.6023 225.273 53.5271 222.781 57.0878 222.85C58.3722 222.8 60.3941 222.869 60.5531 221.161C60.801 220.889 61.2906 220.345 61.5322 220.073C63.0265 215.31 62.8166 210.186 64.4762 205.466C64.3999 201.582 64.6923 197.685 64.4316 193.801C65.0484 189.715 66.1865 185.577 65.5126 181.421C64.5843 179.625 63.0328 178.264 61.7548 176.734C58.9253 173.589 56.4329 170.041 55.3392 165.91C53.6543 161.987 54.3918 157.679 54.252 153.549C54.2392 149.962 53.8959 146.343 54.4364 142.769C55.4473 138.107 57.3421 133.704 58.8554 129.187C60.6866 123.943 63.2744 118.863 67.1276 114.795C68.2975 113.53 70.2304 113.89 71.7819 113.89C73.1298 113.77 73.9564 114.953 74.4905 116.01C76.557 120.001 78.1847 124.303 78.4327 128.833C86.2089 127.51 94.2522 126.214 102.092 127.745C108.597 129.997 110.676 137.158 113.963 142.459C114.936 144.528 117.873 143.806 119.088 145.66C121.072 148.842 120.894 152.884 119.813 156.345C118.872 159.47 118.293 162.879 116.106 165.435C112.615 169.566 108.501 173.229 103.745 175.867C100.356 176.93 97.3233 179.08 93.6863 179.277C92.3384 181.636 91.3782 184.23 91.7025 186.994C95.9944 186.172 96.6493 180.719 100.655 179.397C103.542 178.473 106.549 177.809 109.194 176.265C112.462 174.608 114.529 171.382 117.74 169.629C120.258 167.864 123.303 166.89 125.611 164.834C126.858 164.233 128.091 163.607 129.325 162.974C129.439 164.05 129.547 165.125 129.674 166.207C130.431 165.91 131.188 165.612 131.951 165.315C131.849 165.056 131.646 164.537 131.544 164.277C133.127 164.189 133.292 165.612 133.559 166.802C131.328 168.63 130.418 171.394 129.045 173.817C127.513 176.556 126.947 179.669 125.828 182.572C123.392 188.386 122.019 195.022 123.685 201.228C124.569 203.67 125.052 206.51 127.118 208.288C127.023 210.755 129.426 212.052 131.2 213.279C134.278 215.044 137.463 217.106 141.151 217.087C147.363 217.075 153.334 214.924 158.91 212.381C162.687 210.224 166.934 208.49 169.834 205.131C173.045 204.53 174.596 201.361 176.942 199.469C177.419 198.913 178.347 198.622 178.456 197.831C180.967 195.471 183.262 192.517 183.949 189.082C183.701 187.924 183.555 186.748 183.212 185.622C181.997 184.907 180.681 184.243 179.263 184.097C177.89 184.407 176.682 185.191 175.416 185.78L175.919 186.083C174.8 186.975 173.725 187.918 172.65 188.861C170.419 189.784 168.13 190.809 166.515 192.663C163.278 193.877 160.239 195.522 157.193 197.129C154.103 197.78 150.829 197.85 147.681 197.54C145.799 196.68 144.852 194.269 145.469 192.334C146.092 189.544 146.975 186.824 147.56 184.027C147.719 182.667 148.902 181.832 149.767 180.902C151.375 181.63 153.073 182.8 154.93 182.262C158.668 181.061 162.642 181.099 166.438 180.105C170.597 179.46 173.464 176.152 176.936 174.102C179.791 172.413 180.541 168.902 182.951 166.77C185.545 164.436 186.779 161.032 187.453 157.711C187.898 159.318 188.476 160.887 188.94 162.494L188.813 162.993C187.058 165.878 187.281 169.389 187.205 172.634C187.052 178.03 187.02 183.724 189.366 188.721C190.333 191.701 192.781 193.89 195.203 195.743C197.359 196.648 199.451 197.704 201.505 198.805C201.676 199.197 202.02 199.988 202.191 200.387C204.181 200.418 206.21 200.355 208.079 199.602C207.831 199.406 207.322 199.02 207.068 198.824C212.861 198.552 217.254 193.934 220.446 189.531C222.118 187.406 223.873 185.166 224.083 182.357C224.274 182.516 224.655 182.832 224.846 182.996C224.929 181.149 224.878 179.308 224.808 177.474C223.231 177.297 221.654 177.214 220.071 177.246ZM95.9944 106.672C95.3458 108.229 93.9343 109.393 92.4528 110.133C89.7696 110.474 86.5078 110.803 84.4731 108.646C82.3494 107.103 82.8454 104.224 83.2205 102.004C86.1708 100.928 89.3499 99.4228 92.5291 100.587C94.6591 101.738 96.732 104.079 95.9944 106.672ZM159.253 206.909C159.54 207.529 159.826 208.155 160.118 208.781C158.478 209.49 157.549 208.244 156.863 206.934C157.657 206.921 158.452 206.915 159.253 206.909ZM164.118 167.972C155.922 167.972 155.934 155.32 164.118 155.32C172.301 155.32 172.301 167.972 164.118 167.972Z" fill="white"/>
<path d="M467.753 172.008C465 172.634 463.08 174.804 460.81 176.297C460.46 175.19 460.123 174.077 459.754 172.982L459.487 173.672C458.578 166.618 458.565 159.457 459.411 152.397C460.619 147.963 459.786 143.332 460.428 138.821C461.039 134.311 460.11 129.706 461.128 125.233C461.732 119.736 461.096 114.087 462.482 108.678C463.359 104.629 462.914 100.435 463.76 96.3863C464.377 92.6792 463.639 88.9469 462.857 85.3283C463.054 83.6772 463.379 81.9059 462.679 80.3308C461.961 79.2237 460.721 78.7999 459.455 78.8125C458.514 77.9458 457.275 77.3196 455.977 77.3449C454.267 77.6675 452.69 78.5405 450.929 78.5848C449.06 78.8631 446.866 78.4835 445.384 79.9069C443.852 79.9132 441.862 79.2996 440.953 80.9317C439.382 82.2349 441.379 84.3478 440.145 85.7901C436.515 90.2184 436.324 96.1586 435.128 101.51C434.251 104.047 433.711 106.742 434.06 109.424L433.971 110.114C432.07 112.537 432.153 115.769 431.644 118.66C431.447 122.26 430.042 125.682 430.124 129.301C430.131 131.344 430.124 133.406 429.603 135.393C428.281 140.125 429.501 145.122 428.281 149.873C427.104 154.434 427.988 159.198 426.99 163.784C426.074 167.58 426.5 171.496 426.042 175.342C425.349 183.604 427.778 192.005 432.77 198.641C435.465 201.829 440.152 201.304 443.909 201.348C447.61 201.462 451.488 200.304 453.936 197.401C456.206 196.193 458.063 194.383 460.168 192.928C463.938 190.398 466.799 186.817 469.94 183.597C470.271 183.515 470.92 183.351 471.244 183.268C472.433 180.592 474.372 177.708 473.367 174.665C472.242 172.691 469.832 172.21 467.753 172.008Z" fill="white"/>
<path d="M60.6421 202.968C61.653 201.949 61.7865 200.532 61.8501 199.178C61.0935 199.248 60.3369 199.324 59.5802 199.4C59.5103 200.646 59.4467 201.892 59.4022 203.145C58.0987 206.403 56.9161 210.312 58.6074 213.652C60.6484 210.502 60.6866 206.58 60.6421 202.968Z" fill="white"/>
<path d="M535.54 115.27C535.54 115.32 535.552 115.409 535.699 115.459C535.794 115.491 536.15 115.637 536.563 115.801C537.148 116.035 537.809 116.301 538.077 116.396C538.483 116.535 538.801 116.933 539.355 118.629C539.412 118.8 539.463 118.983 539.52 119.173C540.073 121.007 540.9 123.772 545.115 126.998C550.068 130.787 554.672 131.388 559.129 131.977C562.906 132.47 566.473 132.938 569.741 135.431C570.186 135.766 570.587 135.924 571.013 135.924C571.197 135.924 571.369 135.893 571.534 135.867C571.687 135.842 571.827 135.817 571.973 135.817C572.227 135.817 572.456 135.893 572.704 136.07C574.027 137 575.171 137.455 576.214 137.455C577.257 137.455 577.962 137.038 578.585 136.645C578.833 136.487 579.062 136.411 579.285 136.411C579.482 136.411 579.654 136.475 579.825 136.532C579.991 136.588 580.162 136.645 580.347 136.645C580.607 136.645 580.855 136.532 581.116 136.279C581.313 136.089 581.39 135.88 581.345 135.659C581.154 134.672 578.477 133.413 572.532 130.958C567.617 128.928 562.073 124.79 560.547 123.222C560.763 123.253 560.992 123.272 561.221 123.272C565.055 123.272 569.576 118.591 571.922 115.801C575.177 111.936 577.536 107.931 577.536 107.115C577.536 107.039 577.524 106.983 577.492 106.938C577.428 106.843 577.307 106.818 577.161 106.881C576.881 107.002 576.665 107.09 576.513 107.141C576.824 106.837 577.549 106.236 578.477 105.471L579.17 104.901C579.425 104.686 579.533 104.572 579.488 104.452C579.476 104.42 579.438 104.345 579.317 104.345C579.132 104.345 578.655 104.528 577.6 104.952C575.355 105.844 571.178 107.508 566.867 108.178C564.241 108.589 561.73 109.564 560.038 110.329C560.655 109.829 561.208 109.342 561.373 109.095C561.838 108.419 561.66 107.805 561.501 107.261C561.437 107.033 561.373 106.818 561.361 106.616C561.348 106.35 561.526 106.192 561.825 105.964C562.13 105.724 562.48 105.452 562.562 104.927C562.69 104.136 562.295 103.801 561.978 103.541C561.736 103.339 561.545 103.181 561.539 102.858C561.539 102.478 561.749 102.213 561.978 101.934C562.238 101.612 562.512 101.276 562.467 100.764C562.423 100.271 562.181 99.9986 561.946 99.7329C561.723 99.4862 561.513 99.2521 561.45 98.8219C561.386 98.4107 561.501 98.164 561.628 97.9046C561.774 97.5947 561.927 97.2784 561.774 96.7217C561.621 96.165 561.297 95.8677 560.979 95.583C560.712 95.3426 560.458 95.1149 560.299 94.729C560.172 94.4316 560.108 93.8243 560.038 93.1791C559.905 91.9265 559.752 90.5095 559.065 90.2501C559.002 90.2248 558.938 90.2122 558.875 90.2122C558.474 90.2122 558.213 90.6929 557.997 91.218C557.921 91.3319 557.857 91.4837 557.794 91.6798C557.756 91.8063 557.717 91.9265 557.679 92.0467C557.272 93.1538 556.808 94.3304 556.141 95.3616C555.988 95.602 555.772 95.8297 555.549 96.0764C555.397 96.2409 555.231 96.418 555.079 96.6078C554.678 97.019 554.208 97.4745 553.712 97.9489C551.722 99.8594 549.248 102.232 548.142 105.18C547.461 106.989 547.519 109.292 547.576 111.329C547.608 112.556 547.639 113.72 547.506 114.65C547.474 114.896 547.283 115.023 546.953 115.023C546.857 115.023 546.756 115.01 546.648 114.991C546.298 114.922 545.993 114.498 545.598 113.96C544.918 113.024 543.99 111.746 542.044 111.183C541.694 111.082 541.357 111.031 541.033 111.031C538.967 111.031 537.949 113.043 537.511 113.903C537.434 114.049 537.377 114.163 537.339 114.22C537.104 114.555 536.239 114.903 535.915 115.01C535.54 115.093 535.533 115.213 535.533 115.263L535.54 115.27Z" fill="white"/>
</svg>
