<svg width="212" height="212" viewBox="0 0 212 212" fill="none" xmlns="http://www.w3.org/2000/svg">
<path d="M185.5 141.333H61.8334C59.4907 141.333 57.2439 140.403 55.5873 138.746C53.9307 137.089 53.0001 134.843 53.0001 132.5C53.0001 130.157 53.9307 127.91 55.5873 126.254C57.2439 124.597 59.4907 123.667 61.8334 123.667H154.053C159.96 123.667 165.697 121.694 170.354 118.061C175.011 114.428 178.321 109.344 179.758 103.615L194.333 46.2865C194.664 44.9828 194.693 43.6207 194.417 42.3042C194.142 40.9877 193.569 39.7515 192.743 38.6898C191.884 37.601 190.781 36.7297 189.523 36.1465C188.264 35.5634 186.886 35.2847 185.5 35.3332H59.7134C57.891 30.1785 54.5188 25.7137 50.0592 22.5508C45.5995 19.3879 40.2708 17.6819 34.8034 17.6665H26.5001C24.1573 17.6665 21.9105 18.5972 20.254 20.2537C18.5974 21.9103 17.6667 24.1571 17.6667 26.4998C17.6667 28.8426 18.5974 31.0894 20.254 32.7459C21.9105 34.4025 24.1573 35.3332 26.5001 35.3332H34.8034C36.8213 35.2744 38.7984 35.9085 40.4056 37.13C42.0128 38.3515 43.1531 40.0866 43.6367 42.0465L44.1667 46.2865L59.4484 106C52.4202 106.316 45.8054 109.411 41.0594 114.605C36.3133 119.798 33.8246 126.664 34.1409 133.692C34.4572 140.721 37.5525 147.335 42.7458 152.081C47.9392 156.827 54.8052 159.316 61.8334 159H63.4234C61.9706 163.002 61.5038 167.296 62.0625 171.518C62.6211 175.739 64.1888 179.764 66.6327 183.25C69.0767 186.737 72.3249 189.584 76.1024 191.549C79.8798 193.515 84.0753 194.541 88.3334 194.541C92.5916 194.541 96.787 193.515 100.564 191.549C104.342 189.584 107.59 186.737 110.034 183.25C112.478 179.764 114.046 175.739 114.604 171.518C115.163 167.296 114.696 163.002 113.243 159H134.09C132.637 163.002 132.17 167.296 132.729 171.518C133.288 175.739 134.855 179.764 137.299 183.25C139.743 186.737 142.992 189.584 146.769 191.549C150.546 193.515 154.742 194.541 159 194.541C163.258 194.541 167.454 193.515 171.231 191.549C175.009 189.584 178.257 186.737 180.701 183.25C183.145 179.764 184.712 175.739 185.271 171.518C185.83 167.296 185.363 163.002 183.91 159H185.5C187.843 159 190.09 158.069 191.746 156.413C193.403 154.756 194.333 152.509 194.333 150.167C194.333 147.824 193.403 145.577 191.746 143.92C190.09 142.264 187.843 141.333 185.5 141.333ZM174.193 52.9998L162.622 99.2865C162.138 101.246 160.998 102.982 159.391 104.203C157.783 105.424 155.806 106.059 153.788 106H77.5567L64.3067 52.9998H174.193ZM88.3334 176.667C86.5863 176.667 84.8785 176.148 83.4259 175.178C81.9732 174.207 80.841 172.828 80.1725 171.214C79.5039 169.599 79.329 167.823 79.6698 166.11C80.0106 164.396 80.8519 162.822 82.0873 161.587C83.3227 160.352 84.8966 159.51 86.6101 159.17C88.3236 158.829 90.0997 159.004 91.7138 159.672C93.3279 160.341 94.7074 161.473 95.6781 162.926C96.6487 164.378 97.1667 166.086 97.1667 167.833C97.1667 170.176 96.2361 172.423 94.5795 174.079C92.923 175.736 90.6762 176.667 88.3334 176.667ZM159 176.667C157.253 176.667 155.545 176.148 154.093 175.178C152.64 174.207 151.508 172.828 150.839 171.214C150.171 169.599 149.996 167.823 150.336 166.11C150.677 164.396 151.519 162.822 152.754 161.587C153.989 160.352 155.563 159.51 157.277 159.17C158.99 158.829 160.766 159.004 162.38 159.672C163.995 160.341 165.374 161.473 166.345 162.926C167.315 164.378 167.833 166.086 167.833 167.833C167.833 170.176 166.903 172.423 165.246 174.079C163.59 175.736 161.343 176.667 159 176.667Z" fill="#1B1B1B"/>
</svg>
