<svg width="29" height="48" viewBox="0 0 29 48" fill="none" xmlns="http://www.w3.org/2000/svg">
<path d="M27.0375 21.4854L6.99167 1.475C6.66243 1.14305 6.27072 0.879569 5.83913 0.699763C5.40755 0.519957 4.94463 0.427383 4.47709 0.427383C4.00955 0.427383 3.54663 0.519957 3.11505 0.699763C2.68346 0.879569 2.29175 1.14305 1.96251 1.475C1.30287 2.13858 0.932617 3.03622 0.932617 3.97188C0.932617 4.90754 1.30287 5.80518 1.96251 6.46875L19.4938 24.1771L1.96251 41.7083C1.30287 42.3719 0.932617 43.2696 0.932617 44.2052C0.932617 45.1409 1.30287 46.0385 1.96251 46.7021C2.29052 47.0367 2.68168 47.303 3.11332 47.4853C3.54496 47.6677 4.0085 47.7626 4.47709 47.7646C4.94568 47.7626 5.40922 47.6677 5.84086 47.4853C6.2725 47.303 6.66366 47.0367 6.99167 46.7021L27.0375 26.6917C27.397 26.36 27.6839 25.9575 27.8801 25.5095C28.0764 25.0615 28.1777 24.5777 28.1777 24.0885C28.1777 23.5994 28.0764 23.1156 27.8801 22.6676C27.6839 22.2196 27.397 21.8171 27.0375 21.4854Z" fill="#FFC71D"/>
</svg>
